<svg xmlns="http://www.w3.org/2000/svg" width="165" height="84" fill="none" viewBox="0 0 165 84"><g clip-path="url(#a)"><path stroke="#A765CB" stroke-width=".3" d="M-.058 41H4.85m46.266 0h-4.206m0 0V19.447m0 21.553h-7.01m7.01-21.553 3.505 1.807.7-1.39-27.95-15.018-.79 1.39 2.103 1.133m22.432 12.078L24.477 7.369m0 0v8.323m0 25.308V17.36m0 23.64h-2.804m2.804 0h7.01m-7.01-23.64L4.849 24.805m19.628-7.443v-1.669M4.849 24.804l-2.96 1.178-.556-1.39 23.144-8.9M4.849 24.804V41m0 0h2.804m0 0h14.02m-14.02 0v-4.511M21.673 41v-4.511M31.487 41V27.095h8.412V41m-8.412 0h8.412M21.673 28.922v-1.828H7.653v1.828m14.02 0H7.653m14.02 0v1.891m-14.02-1.891v1.891m0 0h14.02m-14.02 0v1.892m14.02-1.892v1.892m0 0H7.653m14.02 0v1.892m-14.02-1.892v1.892m0 0h14.02m-14.02 0v1.892m14.02-1.892v1.892m0 0H7.653M32.797 41V28.432h5.815V41m-3.941-22.71-1.737 1.737a1.033 1.033 0 0 0 0 1.461l1.737 1.737a1.033 1.033 0 0 0 1.46 0l1.738-1.737a1.033 1.033 0 0 0 0-1.46l-1.737-1.738a1.033 1.033 0 0 0-1.461 0Z"/><g clip-path="url(#b)"><g clip-path="url(#c)"><path fill="#fff" d="M56.765 20.866s1.959 7.387-.755 10.483z"/><path stroke="#340051" stroke-linejoin="round" stroke-width=".254" d="M56.765 20.866s1.959 7.387-.755 10.483"/><path fill="#fff" stroke="#340051" stroke-linejoin="round" stroke-width=".254" d="M49.996 8.313c0 .094.034.187.068.263.11.28.339.458.585.441l-.119 1.773s-.017-.06-.05-.161l.05 2.34 2.341 4.386.348-4.495v-1.586c.466.05.992-.06 1.4-.569.178-.22.296-.492.33-.772.017-.11.026-.22.017-.339 0-.127-.008-.271-.017-.415a23 23 0 0 1-.025-1.29v-.33a7.4 7.4 0 0 1 .186-1.357 2 2 0 0 1-1.416-.136c-1.391-.67-1.858-.212-1.858-.212s.45.5 0 1.179c-.458.678-.347.738-.288.958h-.424c-.102-.314-.348-.526-.62-.5-.228.017-.415.212-.483.466a.9.9 0 0 0-.034.348z"/><path stroke="#340051" stroke-linejoin="round" stroke-width=".254" d="m50.462 10.052.009.585"/><path fill="#fff" stroke="#340051" stroke-linejoin="round" stroke-width=".254" d="M53.71 9.798c.636 0 .772-.602.772-.602s-.271.11-.738.05c-.568-.067-1.102 0-1.102 0s.491.543 1.06.543z"/><path fill="#340051" stroke="#340051" stroke-linejoin="round" stroke-width=".254" d="M50.064 8.585c-.017.628.288 1.654.416 2.053.034.101.05.16.05.16l.12-1.772c-.247.017-.476-.161-.586-.44Z"/><path stroke="#340051" stroke-linejoin="round" stroke-width=".254" d="M51.133 8.008h.009M53.218 11.29s-.704.043-1.425-.644"/><path fill="#FFCB00" d="m44.076 22.088 2.79.686c-.017.331-.034.654-.034.967 0 .263 0 .526.017.772.026.585.085 1.12.161 1.612.051.314.11.602.178.882.034.152.068.288.11.424.162.602.357 1.111.552 1.535.526 1.145 1.052 1.68 1.052 1.68 1.264-.857 3.29-1.315 3.29-1.315l.78-2.375.238-.712c-.101-2.884-.347-8.872-.347-8.872l-2.307-1.646.28-.788h-.857l-.17-2.053s-3.002.348-4.546 3.511a8 8 0 0 0-.526 1.383c-.025.093-.05.178-.076.271-.687 2.384-1.434 3.834-1.434 3.834l.823.203z"/><mask id="d" width="11" height="19" x="43" y="12" maskUnits="userSpaceOnUse" style="mask-type:luminance"><path fill="#fff" d="m44.076 22.088 2.79.687c-.017.331-.034.653-.034.967 0 .263 0 .526.017.772.026.585.085 1.12.161 1.611.051.314.11.603.178.883.034.152.068.288.11.424.162.602.357 1.11.552 1.535.526 1.145 1.052 1.68 1.052 1.68 1.264-.857 3.29-1.315 3.29-1.315l.78-2.375.238-.713c-.101-2.884-.347-8.872-.347-8.872l-2.307-1.645.28-.789h-.857l-.17-2.052s-3.002.348-4.546 3.511a8 8 0 0 0-.526 1.383c-.025.093-.05.178-.076.271-.687 2.383-1.434 3.834-1.434 3.834l.823.203z"/></mask><g mask="url(#d)"><path fill="#FFCB00" d="M47.706 17.567s-.297 6.463-.11 7.387c.186.925-.365 3.681-.365 3.681l-.39-5.462z"/></g><path stroke="#340051" stroke-linejoin="round" stroke-width=".254" d="m44.076 22.088 2.79.686c-.017.331-.034.654-.034.967 0 .263 0 .526.017.772.026.585.085 1.12.161 1.612.051.314.11.602.178.882.034.152.068.288.11.424.162.602.357 1.111.552 1.535.526 1.145 1.052 1.68 1.052 1.68 1.264-.857 3.29-1.315 3.29-1.315l.78-2.375.238-.712c-.101-2.884-.347-8.872-.347-8.872l-2.307-1.646.28-.788h-.857l-.17-2.053s-3.002.348-4.546 3.511a8 8 0 0 0-.526 1.383c-.025.093-.05.178-.076.271-.687 2.384-1.434 3.834-1.434 3.834l.823.203z"/><path stroke="#340051" stroke-linejoin="round" stroke-width=".254" d="m47.596 16.66-.255 6.216-.475-.102"/><path fill="#FFCB00" d="m53.22 26.235-.238.713.382 2.256h3.418l-.23-.942a27 27 0 0 1-.72-5.317l-.043-1.103s1.103-.314 2.172-1.01c-1.832-1.992-.933-4.707-1.46-5.784a4 4 0 0 0-1.484-1.637 7.7 7.7 0 0 0-1.162-.585l.798 1.62h-.747l.433.857-1.467 2.052s.245 5.988.347 8.872z"/><mask id="e" width="6" height="18" x="52" y="12" maskUnits="userSpaceOnUse" style="mask-type:luminance"><path fill="#fff" d="m53.219 26.236-.238.712.382 2.256h3.418l-.229-.941a27 27 0 0 1-.72-5.318l-.043-1.102s1.102-.314 2.171-1.01c-1.832-1.993-.933-4.707-1.459-5.784a4 4 0 0 0-1.484-1.637 7.7 7.7 0 0 0-1.162-.586l.797 1.62h-.746l.432.857-1.467 2.053s.246 5.988.348 8.871z"/></mask><g mask="url(#e)"><path fill="#FFCB00" d="m57.493 22.462-1.73-2.689.127 2.468 1.018 1.349z"/></g><path stroke="#340051" stroke-linejoin="round" stroke-width=".254" d="m53.22 26.235-.238.713.382 2.256h3.418l-.23-.942a27 27 0 0 1-.72-5.317l-.043-1.103s1.103-.314 2.172-1.01c-1.832-1.992-.933-4.707-1.46-5.784a4 4 0 0 0-1.484-1.637 7.7 7.7 0 0 0-1.162-.585l.798 1.62h-.747l.433.857-1.467 2.052s.245 5.988.347 8.872zM55.61 16.6l.187 5.242"/><path fill="#D0B7FA" d="M48.045 48.236c-.255.475-.28.78-.23.984.077.246.4.322.595.152l.271-.237h-.356l.543-.288.229-.077.61-.212.484-.288 1.688-1.001.492.678.186.255.076.06.586.423c.067.043.152.06.229.017l.152-.068a.23.23 0 0 0 .128-.254c-.23-1-.034-3.774.05-6.209 1.07-1.28 2.044-2.68 2.443-4.096.738-2.663.33-7.057.11-8.872h-2.968l-.382-2.256-.78 2.375s-2.027.458-3.291 1.315c0 0-.534-.535-1.052-1.671l-1.594 2.383-.051.076 1.84 7.964s.085 1.018.162 2.375c.076 1.383.152 3.105.11 4.453-.026.95-.11 1.713-.272 2.019z"/><mask id="f" width="11" height="24" x="46" y="26" maskUnits="userSpaceOnUse" style="mask-type:luminance"><path fill="#fff" d="M48.045 48.235c-.254.475-.28.78-.229.984.077.246.399.322.594.153l.272-.238h-.357l.543-.288.23-.076.61-.213.483-.288 1.688-1 .492.678.187.254.076.06.585.424c.068.042.153.06.23.017l.152-.068a.23.23 0 0 0 .127-.255c-.229-1-.034-3.774.05-6.208 1.07-1.28 2.045-2.68 2.444-4.097.737-2.663.33-7.056.11-8.871h-2.969l-.381-2.257-.78 2.375s-2.028.458-3.291 1.315c0 0-.535-.534-1.052-1.671l-1.595 2.383-.05.077 1.84 7.964s.085 1.018.161 2.375c.076 1.382.153 3.104.11 4.453-.025.95-.11 1.713-.271 2.018z"/></mask><g mask="url(#f)"><path fill="#B994F8" d="M46.434 29.974s2.493 8.465 2.502 10.246c.008 1.78.271 6.777.271 6.777h.662l-1.298 3.061-1.857.17.373-9.644-1.663-8.982 1.01-1.636z"/></g><path stroke="#340051" stroke-linejoin="round" stroke-width=".254" d="M48.045 48.236c-.255.475-.28.78-.23.984.077.246.4.322.595.152l.271-.237h-.356l.543-.288.229-.077.61-.212.484-.288 1.688-1.001.492.678.186.255.076.06.586.423c.067.043.152.06.229.017l.152-.068a.23.23 0 0 0 .128-.254c-.23-1-.034-3.774.05-6.209 1.07-1.28 2.044-2.68 2.443-4.096.738-2.663.33-7.057.11-8.872h-2.968l-.382-2.256-.78 2.375s-2.027.458-3.291 1.315c0 0-.534-.535-1.052-1.671l-1.594 2.383-.051.076 1.84 7.964s.085 1.018.162 2.375c.076 1.383.152 3.105.11 4.453-.026.95-.11 1.713-.272 2.019z"/><path stroke="#340051" stroke-linejoin="round" stroke-width=".254" d="M52.693 30.45v1.357s.882 4.775 1.086 7.286c.068.788.042 1.891 0 3.078M51.167 45.675l1.187 1.56"/><path fill="#7754CC" stroke="#340051" stroke-linejoin="round" stroke-width=".254" d="m48.936 48.914.933.9c1.204.678 2.689.458 2.689.458l.212-.263a.66.66 0 0 1 .517-.246h.62l-1.018-.883-.247-.619-.076-.059-.186-.255c-.535-.17-1.358-.262-1.578.543l-.602-.22-.484.288-.61.212-.162.144z"/><path fill="#451E84" stroke="#340051" stroke-linejoin="round" stroke-width=".254" d="m49.869 49.814.28.263c.127.127.28.229.45.297 1.271.492 2.688.322 3.239.229a.29.29 0 0 0 .237-.289v-.186c0-.144-.059-.28-.17-.373h-.618a.67.67 0 0 0-.518.246l-.212.263s-1.476.22-2.688-.459z"/><path fill="#7754CC" stroke="#340051" stroke-linejoin="round" stroke-width=".254" d="m50.19 48.27.603.22c.23-.805 1.043-.704 1.578-.542l-.492-.679z"/><path fill="#fff" d="m46.264 31.35.05-.068 1.544-2.315c-.695-1.391-.95-3.36-1-4.453-.017-.246-.017-.5-.017-.772 0-.314.008-.636.033-.967l-2.79-.687c-.017.119-.025.237-.042.373-.017.17-.034.348-.043.543-.153 2.154.034 5.666 2.273 8.346z"/><mask id="g" width="5" height="10" x="43" y="22" maskUnits="userSpaceOnUse" style="mask-type:luminance"><path fill="#fff" d="m46.264 31.35.05-.068 1.544-2.315c-.695-1.391-.95-3.359-1-4.453-.017-.246-.017-.5-.017-.772 0-.314.008-.636.033-.967l-2.79-.687c-.017.119-.025.238-.042.373-.017.17-.034.348-.043.543-.153 2.155.034 5.666 2.273 8.346z"/></mask><g mask="url(#g)"><path fill="#fff" d="M44.932 21.325s-1.485 6.522 2.06 9.83c3.546 3.3-1.458 1.204-1.458 1.204l-2.282-6.514.704-4.418.984-.102z"/></g><path stroke="#340051" stroke-linejoin="round" stroke-width=".254" d="m46.264 31.35.05-.068 1.544-2.315c-.695-1.391-.95-3.36-1-4.453-.017-.246-.017-.5-.017-.772 0-.314.008-.636.033-.967l-2.79-.687c-.017.119-.025.237-.042.373-.017.17-.034.348-.043.543-.153 2.154.034 5.666 2.273 8.346z"/><path fill="#FFCB00" d="m52.854 17.363-2.34-4.385v-.806l-.713.713.17 2.044h.856l-.288.788z"/><mask id="h" width="4" height="6" x="49" y="12" maskUnits="userSpaceOnUse" style="mask-type:luminance"><path fill="#fff" d="m52.854 17.363-2.34-4.385v-.806l-.713.713.17 2.044h.856l-.288.788z"/></mask><g mask="url(#h)"><path stroke="#B785F5" stroke-linejoin="round" stroke-width=".254" d="M52.642 9.203v26.319"/></g><path stroke="#340051" stroke-linejoin="round" stroke-width=".254" d="m52.854 17.363-2.34-4.385v-.806l-.713.713.17 2.044h.856l-.288.788z"/><path fill="#FFCB00" d="m53.218 12.08.636.746.798 1.629h-.747l.433.856-1.485 2.053.365-4.487z"/><path stroke="#340051" stroke-linejoin="round" stroke-width=".254" d="m53.218 12.08.636.746.798 1.629h-.747l.433.856-1.485 2.053.365-4.487z"/><path fill="#340051" d="m49.436 6.295.22.314c.153.593.196 1.212.374 1.365.076-.263.254-.45.483-.466.272-.026.526.186.62.509h.423c-.059-.23-.17-.289.289-.967.45-.679 0-1.18 0-1.18s.466-.449 1.857.213c.51.237.993.263 1.417.135-.051.22-.153.67-.187 1.357.22-.364 1.391-.491.95-2.434-.203-1.153-1.628-1.035-2.307-.84-.229.068-.466 0-.695-.042a1.61 1.61 0 0 0-1.425.45c-.22.212-.5.356-.806.381-.992.094-1.213 1.213-1.213 1.213z"/><mask id="i" width="7" height="5" x="49" y="4" maskUnits="userSpaceOnUse" style="mask-type:luminance"><path fill="#fff" d="m49.436 6.295.22.314c.153.593.196 1.212.374 1.365.076-.263.254-.45.483-.466.272-.026.526.186.62.509h.423c-.059-.23-.17-.289.289-.967.45-.679 0-1.18 0-1.18s.466-.449 1.857.213c.51.237.993.263 1.417.135-.051.22-.153.67-.187 1.357.22-.364 1.391-.491.95-2.434-.203-1.153-1.628-1.035-2.307-.84-.229.068-.466 0-.695-.042a1.61 1.61 0 0 0-1.425.45c-.22.212-.5.356-.806.381-.992.094-1.213 1.213-1.213 1.213z"/></mask><g mask="url(#i)"><path fill="#7754CC" d="M50.165 4.684s3.393-.679 3.919.161c0 0 2.01-.78 2.23 1.747l.094-3.316-4.216.203-2.035 1.213z"/></g><path stroke="#340051" stroke-linejoin="round" stroke-width=".254" d="m49.436 6.295.22.314c.153.593.196 1.212.374 1.365.076-.263.254-.45.483-.466.272-.026.526.186.62.509h.423c-.059-.23-.17-.289.289-.967.45-.679 0-1.18 0-1.18s.466-.449 1.857.213c.51.237.993.263 1.417.135-.051.22-.153.67-.187 1.357.22-.364 1.391-.491.95-2.434-.203-1.153-1.628-1.035-2.307-.84-.229.068-.466 0-.695-.042a1.61 1.61 0 0 0-1.425.45c-.22.212-.5.356-.806.381-.992.094-1.213 1.213-1.213 1.213z"/><path stroke="#340051" stroke-linejoin="round" stroke-width=".254" d="M55.492 5.777s-.093.289-.365.441"/><path fill="#D6D5F3" d="M44.635 54.82c7.418 3.95 34.452 5.934 48.276-.665 17.888-8.537 20.921-7.315 19.833-19.245-.665-7.27-19.373-7.596-38.22-1.459-18.849 6.138-36.333 17.94-29.889 21.364z"/><path stroke="#A765CB" stroke-miterlimit="10" stroke-width=".192" d="M0 40.888h167.5"/><path fill="gray" stroke="#340051" stroke-linejoin="round" stroke-width=".192" d="M92.866 46.411c0 .422-.02.832-.032 1.222-.026.634-.064 1.216-.096 1.716v.019c-.013.153-.02.294-.039.435l-.121.064c.793-4.922-1.44-9.491-2.637-10.317-.691-.531-1.658-.691-2.432-.723.179-.186.352-.34.531-.474q.203-.142.397-.256c.09-.044.179-.09.269-.121.499-.211.998-.224 1.465-.122q.094.021.18.051.509.165.921.5.07.057.128.115c.378.352.66.813.813 1.325.557 1.881.685 4.403.659 6.572z"/><path stroke="#340051" stroke-miterlimit="10" stroke-width=".192" d="M88.046 38.347q.205-.151.397-.256-.193.114-.397.256ZM90.171 37.848ZM92.866 46.411c0 .423-.02.832-.032 1.223q.021-.587.032-1.223Z"/><path fill="#B2B2B2" stroke="#340051" stroke-linejoin="round" stroke-width=".192" d="M107.074 44.74c.512 2.15 2.579 2.624 4.397 2.31a3.06 3.06 0 0 0 2.368-2.06c.518-1.58.742-3.949.646-6.105-.064-1.492-.275-2.868-.659-3.815-.231-.595-.531-1.011-.896-1.184-.403-.186-1.984-1.05-2.362-.614-1.03 1.184-3.897 4.243-2.31 6.425.589.807.793 2.541.928 3.527l.083.557a.665.665 0 0 1-.602.748q-.74.059-1.606.211z"/><path fill="#E5E5E5" stroke="#340051" stroke-linejoin="round" stroke-width=".192" d="M112.123 44.83c.817 0 1.479-2.02 1.479-4.512s-.662-4.512-1.479-4.512c-.816 0-1.478 2.02-1.478 4.512s.662 4.512 1.478 4.512Z"/><path fill="#B2B2B2" stroke="#340051" stroke-linejoin="round" stroke-width=".192" d="M92.584 49.86c-.486 4.794-2.963 6.145-3.104 6.183-2.81.762-5.613.589-6.918.5-1.108-.078-2.701-2.19-2.874-2.56q.643-.048 1.306-.103a2.39 2.39 0 0 0 2.035-1.51c.57-1.434.838-3.168 1.056-4.359.921-5.069 2.157-7.846 3.43-9.19.775.032 1.741.192 2.432.723 1.203.82 3.437 5.395 2.637 10.317Z"/><path fill="#fff" d="M115.131 36.338c-.217 1.254-.467 2.08-.646 2.547-.064-1.491-.275-2.874-.659-3.815-.231-.589-.525-1.01-.89-1.177-.403-.186-3.213-.576-3.737 9.337l.083.557a.656.656 0 0 1-.602.742 16 16 0 0 0-1.606.212c-4.359.768-10.707 3.187-13.965 4.845-.173.083-.371-.039-.371-.224v-.02a48 48 0 0 0 .128-2.937c.025-2.176-.096-4.691-.66-6.573a2.95 2.95 0 0 0-.812-1.325q-.06-.057-.128-.115a2.7 2.7 0 0 0-.922-.5c-.064-.019-.121-.038-.179-.05a2.34 2.34 0 0 0-1.466.121q-.135.056-.268.122c-.128.076-.263.16-.397.256-.18.134-.352.288-.531.473-1.274 1.338-2.51 4.115-3.43 9.19-.218 1.191-.487 2.925-1.057 4.36a2.4 2.4 0 0 1-2.035 1.51q-.662.056-1.306.102c-24.563 1.85-35.321-2.1-35.321-2.1-.026-1.08-.403-1.657-.73-1.958-.3-.275-.525-.633-.589-1.036-.006-.058-.019-.116-.031-.18.793.295 1.638.557 2.521.8.883.237 1.811.442 2.765.615.384.07.761.134 1.152.198 10.464 1.683 23.878.384 27.321 0a.583.583 0 0 0 .455-.845l-.442-.85-1.286-2.497a.707.707 0 0 0-.66-.397l-4.825.122c-.256 0-.5.07-.717.192a1.5 1.5 0 0 0-.294.218c-.096.083-.173.179-.243.281l-1.293 1.959a.7.7 0 0 1-.102.134 1 1 0 0 1-.122.122 1.5 1.5 0 0 1-.576.339 1.2 1.2 0 0 1-.34.064l-.242.019c-.173.013-.372.026-.583.045l-.34.019c-.23.013-.486.032-.748.051-.134.007-.275.02-.422.02-.282.012-.583.031-.896.044h-.007l-.985.039c-5.236.166-13.517-.032-19.328-2.407-.237-1.997-.384-4.826.192-7.321 2.841 1.715 4.486 1.817 4.486 1.817s-.02-6.035.474-6.944c0 0-.314 0-.8.045-.167.013-.346.038-.544.064 3.654-2.208 10.01-4.224 11.853-4.78.3-.097.486-.148.511-.154.186-.212.372-.41.557-.615a35 35 0 0 1 1.658-1.683c5.517-5.248 10.464-6.643 10.464-6.643 8.358-2.445 23.757-2.816 29.453-2.023 4.448.615 8.249 4.807 9.702 6.618.371.467.934.71 1.53.749a2.73 2.73 0 0 1 1.561.614 3.24 3.24 0 0 1 1.165 2.278l.256 3.386c.102 1.306.051 2.63-.173 3.923z"/><mask id="j" width="74" height="37" x="42" y="18" maskUnits="userSpaceOnUse" style="mask-type:luminance"><path fill="#fff" d="M115.131 36.338c-.217 1.254-.467 2.08-.646 2.547-.064-1.491-.275-2.874-.659-3.815-.231-.589-.525-1.01-.89-1.177-.403-.186-3.213-.576-3.737 9.337l.083.557a.656.656 0 0 1-.602.742 16 16 0 0 0-1.606.212c-4.359.768-10.707 3.187-13.965 4.845-.173.083-.371-.039-.371-.224v-.02a48 48 0 0 0 .128-2.937c.025-2.176-.096-4.691-.66-6.573a2.95 2.95 0 0 0-.812-1.325q-.06-.057-.128-.115a2.7 2.7 0 0 0-.922-.5c-.064-.019-.121-.038-.179-.05a2.34 2.34 0 0 0-1.466.121q-.135.056-.268.122c-.128.076-.263.16-.397.256-.18.134-.352.288-.531.473-1.274 1.338-2.51 4.115-3.43 9.19-.218 1.191-.487 2.925-1.057 4.36a2.4 2.4 0 0 1-2.035 1.51q-.662.056-1.306.102c-24.563 1.85-35.321-2.1-35.321-2.1-.026-1.08-.403-1.657-.73-1.958-.3-.275-.525-.633-.589-1.036-.006-.058-.019-.116-.031-.18.793.295 1.638.557 2.521.8.883.237 1.811.442 2.765.615.384.07.761.134 1.152.198 10.464 1.683 23.878.384 27.321 0a.583.583 0 0 0 .455-.845l-.442-.85-1.286-2.497a.707.707 0 0 0-.66-.397l-4.825.122c-.256 0-.5.07-.717.192a1.5 1.5 0 0 0-.294.218c-.096.083-.173.179-.243.281l-1.293 1.959a.7.7 0 0 1-.102.134 1 1 0 0 1-.122.122 1.5 1.5 0 0 1-.576.339 1.2 1.2 0 0 1-.34.064l-.242.019c-.173.013-.372.026-.583.045l-.34.019c-.23.013-.486.032-.748.051-.134.007-.275.02-.422.02-.282.012-.583.031-.896.044h-.007l-.985.039c-5.236.166-13.517-.032-19.328-2.407-.237-1.997-.384-4.826.192-7.321 2.841 1.715 4.486 1.817 4.486 1.817s-.02-6.035.474-6.944c0 0-.314 0-.8.045-.167.013-.346.038-.544.064 3.654-2.208 10.01-4.224 11.853-4.78.3-.097.486-.148.511-.154.186-.212.372-.41.557-.615a35 35 0 0 1 1.658-1.683c5.517-5.248 10.464-6.643 10.464-6.643 8.358-2.445 23.757-2.816 29.453-2.023 4.448.615 8.249 4.807 9.702 6.618.371.467.934.71 1.53.749a2.73 2.73 0 0 1 1.561.614 3.24 3.24 0 0 1 1.165 2.278l.256 3.386c.102 1.306.051 2.63-.173 3.923z"/></mask><g fill="#E3E3E3" mask="url(#j)"><path d="m56.904 36.875-2.407-1.248a1.26 1.26 0 0 0-.806-.122l-2.368.442c-1.011.186-1.734-.954-1.133-1.786l.026-.038c.37-.518.3-1.235-.173-1.664-.787-.71-.256-2.022.806-1.978l2.17.084a1.24 1.24 0 0 0 .813-.263l2.035-1.574a1.136 1.136 0 0 1 1.766.518l.448 1.248c.147.41.5.717.928.807l.858.179c1.114.23 1.235 1.779.166 2.176l-.576.217a1.27 1.27 0 0 0-.812 1.07l-.09 1.01a1.14 1.14 0 0 1-1.658.916zM85.678 25.047l-2.407 1.247c-.25.128-.531.173-.806.122l-2.368-.442c-1.011-.185-1.735.954-1.133 1.786l.026.038c.37.519.3 1.236-.173 1.665-.787.71-.256 2.022.806 1.977l2.17-.083a1.24 1.24 0 0 1 .813.262l2.035 1.575a1.136 1.136 0 0 0 1.766-.519l.448-1.248c.147-.41.5-.716.928-.806l.858-.18c1.113-.23 1.235-1.778.166-2.175l-.576-.218a1.27 1.27 0 0 1-.813-1.069l-.09-1.01a1.14 1.14 0 0 0-1.657-.916zM90.629 13.531l2.406 1.248c.25.128.531.173.806.122l2.368-.442c1.011-.185 1.735.954 1.133 1.786l-.025.038c-.372.519-.301 1.235.172 1.664.787.71.256 2.023-.806 1.978l-2.17-.083a1.24 1.24 0 0 0-.812.262l-2.036 1.575a1.136 1.136 0 0 1-1.766-.519l-.448-1.248c-.147-.41-.5-.717-.928-.806l-.858-.18c-1.113-.23-1.235-1.779-.166-2.175l.576-.218a1.27 1.27 0 0 0 .813-1.069l.09-1.011a1.14 1.14 0 0 1 1.657-.915zM96.93 51.262l-2.407-1.248a1.26 1.26 0 0 0-.807-.121l-2.368.441c-1.01.186-1.734-.953-1.132-1.785l.025-.039c.371-.518.3-1.235-.173-1.664-.787-.71-.256-2.022.807-1.977l2.17.083a1.24 1.24 0 0 0 .812-.262l2.035-1.575a1.136 1.136 0 0 1 1.767.519l.448 1.248c.147.41.499.716.928.806l.857.18c1.114.23 1.236 1.778.167 2.175l-.576.218a1.27 1.27 0 0 0-.813 1.069l-.09 1.01a1.14 1.14 0 0 1-1.657.916z"/></g><path stroke="#381A57" stroke-miterlimit="10" stroke-width=".192" d="M115.131 36.338c-.217 1.254-.467 2.08-.646 2.547-.064-1.491-.275-2.874-.659-3.815-.231-.589-.525-1.01-.89-1.177-.403-.186-3.213-.576-3.737 9.337l.083.557a.656.656 0 0 1-.602.742 16 16 0 0 0-1.606.212c-4.359.768-10.707 3.187-13.965 4.845-.173.083-.371-.039-.371-.224v-.02a48 48 0 0 0 .128-2.937c.025-2.176-.096-4.691-.66-6.573a2.95 2.95 0 0 0-.812-1.325q-.06-.057-.128-.115a2.7 2.7 0 0 0-.922-.5c-.064-.019-.121-.038-.179-.05a2.34 2.34 0 0 0-1.466.121q-.135.056-.268.122c-.128.076-.263.16-.397.256-.18.134-.352.288-.531.473-1.274 1.338-2.51 4.115-3.43 9.19-.218 1.191-.487 2.925-1.057 4.36a2.4 2.4 0 0 1-2.035 1.51q-.662.056-1.305.102c-24.564 1.85-35.322-2.1-35.322-2.1-.026-1.08-.403-1.657-.73-1.958-.3-.275-.525-.633-.589-1.036-.006-.058-.019-.116-.031-.18.793.295 1.638.557 2.521.8.883.237 1.811.442 2.765.615.384.07.761.134 1.152.198 10.464 1.683 23.878.384 27.321 0a.583.583 0 0 0 .455-.845l-.442-.85-1.286-2.497a.708.708 0 0 0-.66-.397l-4.825.122c-.256 0-.5.07-.717.192a1.5 1.5 0 0 0-.294.218c-.096.083-.173.179-.243.281l-1.293 1.959a.7.7 0 0 1-.102.134 1 1 0 0 1-.122.122 1.5 1.5 0 0 1-.576.339 1.2 1.2 0 0 1-.34.064l-.242.019c-.173.013-.372.026-.583.045l-.34.019c-.23.013-.486.032-.748.051-.134.007-.275.02-.422.02-.282.012-.583.031-.896.044h-.007l-.985.039c-5.236.166-13.517-.032-19.328-2.407-.237-1.997-.384-4.826.192-7.321 2.841 1.715 4.486 1.817 4.486 1.817s-.02-6.035.474-6.944c0 0-.314 0-.8.045-.167.013-.346.038-.544.064 3.654-2.208 10.01-4.224 11.853-4.78.3-.097.486-.148.511-.154.186-.212.372-.41.557-.615a35 35 0 0 1 1.658-1.683c5.517-5.248 10.464-6.643 10.464-6.643 8.358-2.445 23.757-2.816 29.453-2.023 4.448.615 8.249 4.807 9.702 6.618.371.467.934.71 1.53.749a2.73 2.73 0 0 1 1.561.614 3.24 3.24 0 0 1 1.165 2.278l.256 3.386c.102 1.306.051 2.63-.173 3.923z"/><path fill="#E5E5E5" stroke="#340051" stroke-linejoin="round" stroke-width=".192" d="M88.808 54.283c1.527 0 2.765-3 2.765-6.701s-1.238-6.7-2.765-6.7-2.765 3-2.765 6.7 1.238 6.7 2.765 6.7ZM66.9 42.38s3.022-.026 6.075-.231a8.6 8.6 0 0 0 2.739-.647c2.073-.864 4.064-2.13 4.928-3.948.512-1.07.678-1.895.64-2.528a1.323 1.323 0 0 0-1.562-1.21c-2.285.416-5.971 1.606-7.674 2.464-2.515 1.274-5.152 6.1-5.152 6.1zM42.971 39.698c2.483 1.376 4.487 1.817 4.487 1.817s-.02-6.054.473-6.944c0 0-.55 0-1.35.11-1.018.614-1.824 1.247-2.266 1.861-.646.91-1.075 1.997-1.344 3.156ZM89.525 29.375s-15.808-1.12-28.595.3c0 0 5.197-5.996 11.795-8.396 0 0 6.83-1.504 20.167-.82 0 0-2.087 5.504-3.367 8.916ZM93.512 27.506c.013 1.612 1.165 2.17 1.165 2.17.281-.071 3.795-.903 7.206-1.723-.307-4.428-1.945-6.988-2.835-8.063q-.768.086-1.613.23a1.6 1.6 0 0 0-.384.121c-1.427.704-3.565 2.497-3.54 7.265ZM100.194 19.787c.717 1.043 2.579 4.058 3.033 7.847 1.895-.455 3.61-.858 4.544-1.082-.096-1.466-.825-4.442-4.723-6.26a5.8 5.8 0 0 0-2.835-.511h-.013z"/><path fill="#fff" stroke="#381A57" stroke-miterlimit="10" stroke-width=".192" d="M95.4 27.934s.007-.02.013-.026a2.12 2.12 0 0 1 1.94-1.344l1.804-.044c.39-.007.775.083 1.114.275.371.217.774.576.934 1.177a.63.63 0 0 1-.282.698c-.473.3-1.465.813-3.097 1.152-.544.115-1.1.173-1.658.186l-.896.019-.025-1.171c-.007-.32.038-.634.153-.935zM58.44 29.893c.333-.102.519-.154.519-.154.742-.838 1.485-1.6 2.214-2.297a3 3 0 0 0-.313-.269.88.88 0 0 0-.82-.128c-.537.192-1.433.66-1.76 1.696-.096.314-.019.717.16 1.152Z"/><path fill="#B2B2B2" stroke="#340051" stroke-linejoin="round" stroke-width=".192" d="M42.773 47.013c.077.672.166 1.254.237 1.696 10.406 3.923 29.542 2.086 33.76 1.619a.583.583 0 0 0 .454-.845l-1.721-3.347a.73.73 0 0 0-.666-.397l-4.82.115a1.55 1.55 0 0 0-1.254.691l-1.299 1.959a1.52 1.52 0 0 1-1.133.672c-3.142.269-15.641 1.075-23.552-2.163z"/><path stroke="#381A57" stroke-miterlimit="10" stroke-width=".192" d="M102.76 29.451v14.695"/><path fill="#B2B2B2" stroke="#340051" stroke-linejoin="round" stroke-width=".192" d="m62.76 42.917-.967 3.296c-4.313.045-8.71-.314-12.39-.98l-.077-3.167c3.981.684 8.794.998 13.434.85Z"/><path fill="#fff" stroke="#381A57" stroke-miterlimit="10" stroke-width=".192" d="M88.238 50.334c.626 0 1.133-1.232 1.133-2.752s-.507-2.752-1.133-2.752c-.625 0-1.132 1.232-1.132 2.752s.507 2.752 1.132 2.752ZM111.81 42.136c.328 0 .595-.814.595-1.818s-.267-1.817-.595-1.817c-.329 0-.596.813-.596 1.817s.267 1.818.596 1.818Z"/><path fill="#D6D5F3" d="M110.056 77.662c6.79 0 12.295-.816 12.295-1.824 0-1.007-5.505-1.824-12.295-1.824s-12.294.817-12.294 1.824 5.504 1.824 12.294 1.824"/><path fill="#A765CB" stroke="#340051" stroke-linejoin="round" stroke-width=".192" d="M119.996 56.869v3.66c-2.381 1.005-5.447.762-7.066.525l-2.906-5.548-1.42 4.243a5.2 5.2 0 0 0-.276 1.69c-2.662 1.05-6.054.473-8.083-.052l.141-.537 2.054-1.613a7.5 7.5 0 0 0 .039-2.336c-.077-.563-.096-1.126-.115-1.69l-.09-3.136.275-.057V49.24l-.16.045c-.198.058-.384.14-.557.237V47.09l.308-7.092a3.39 3.39 0 0 0 2.924.27c1.312-.487 2.554-1.127 3.245-1.934q.402-.47.775-.883c1.862 1.082 4.563 2.138 7.788 1.895q.394-.03.749-.173l.653 4.595.147 3.34q.047 1.03.275 2.03l1.165 5.1c.199.864.237 1.754.122 2.63z"/><path fill="#fff" stroke="#340051" stroke-linejoin="round" stroke-width=".192" d="M120.168 32.101c-.013.78-.07 1.568-.173 2.343-2.809-1.959-6.157-1.21-6.374-1.159h-.013c.083-.691.192-1.344.32-1.984 2.611-.646 4.858.096 6.246.794z"/><path fill="#A765CB" stroke="#340051" stroke-linejoin="round" stroke-width=".192" d="M119.995 34.45c-.147 1.081-.39 2.131-.768 3.11a2.76 2.76 0 0 1-1.587 1.613 2.5 2.5 0 0 1-.749.173c-3.232.243-5.926-.813-7.788-1.895 2.156-2.457 3.488-3.712 4.512-4.16h.012c.218-.05 3.565-.8 6.375 1.159zM120.776 30.514c.013.326-.601.659-.595.985 0 .205 0 .404-.006.608-1.383-.704-3.636-1.446-6.247-.793.007-.064.026-.128.039-.192a27.5 27.5 0 0 1 2.918-7.789c.006 0 .019.006.026.006 1.574.679 2.668 2.15 2.924 3.847.096.685.192 1.408.25 2.15.032.384.678.781.698 1.184z"/><path fill="#fff" stroke="#340051" stroke-linejoin="round" stroke-width=".192" d="M116.879 23.32a27.5 27.5 0 0 0-2.919 7.79 16 16 0 0 0-1.9-.193c.659-3.532 1.996-6.585 2.867-8.313.64.192 1.293.422 1.945.71z"/><path fill="#A765CB" stroke="#340051" stroke-linejoin="round" stroke-width=".192" d="M114.933 22.61c-.871 1.728-2.215 4.774-2.867 8.313a13.2 13.2 0 0 0-4.711.666c-.768-3.93-2.931-6.746-4.441-8.294 3.244-1.261 7.462-2.048 12.019-.685Z"/><path fill="#fff" stroke="#340051" stroke-linejoin="round" stroke-width=".192" d="M105.724 32.268c-2.823 1.401-4.659 3.558-5.594 4.89-.48-1.057-.55-1.454-.749-2.683 1.204-1.49 3.188-3.366 5.812-3.756.204.505.384 1.024.531 1.548Z"/><path fill="#A765CB" stroke="#340051" stroke-linejoin="round" stroke-width=".192" d="M105.192 30.725c-2.624.384-4.608 2.266-5.811 3.757-.007-.051-.02-.096-.026-.154-.096-.55-.237.263-.653-.793-.102-.269.077-2.317 0-2.611-.633-2.611.084-5.703 2.234-6.746l.051-.026c1.248 1.434 3.098 3.84 4.199 6.58z"/><path fill="#fff" stroke="#340051" stroke-linejoin="round" stroke-width=".192" d="M107.355 31.589a13 13 0 0 0-1.625.678 13 13 0 0 0-.532-1.549c-1.1-2.739-2.95-5.152-4.198-6.579a22 22 0 0 1 1.92-.845c1.504 1.55 3.674 4.365 4.442 8.295z"/><path fill="#A765CB" stroke="#340051" stroke-linejoin="round" stroke-width=".192" d="M113.96 31.115q-.213 1.045-.358 2.176c-1.024.448-2.355 1.703-4.512 4.16q-.373.423-.775.883c-.697.813-1.939 1.447-3.244 1.933a3.41 3.41 0 0 1-2.925-.269 3.45 3.45 0 0 1-1.338-1.433 34 34 0 0 1-.672-1.415c.928-1.33 2.765-3.488 5.594-4.89a13 13 0 0 1 1.625-.678c1.383-.46 2.944-.73 4.711-.665.608.025 1.241.083 1.901.192z"/><path fill="#fff" stroke="#340051" stroke-linejoin="round" stroke-width=".192" d="M111.81 19.96v1.152l-2.746 5.14-2.745-5.063v-.967c.704.461 1.542.736 2.445.75h.051c.288 0 .569-.026.838-.065a4.4 4.4 0 0 0 2.157-.947Z"/><path fill="#A765CB" stroke="#340051" stroke-linejoin="round" stroke-width=".192" d="m109.057 26.252-1.28-1.747-1.465 2.105-.045.058-.224-4.327.224-1.229.045.077zM112.174 22.098l-.364 4.57-1.511-2.163-1.241 1.747 2.752-5.14z"/><path fill="#fff" stroke="#340051" stroke-linejoin="round" stroke-width=".192" d="m113.454 15.282-.121 1.171q-.002.277-.032.544a4.53 4.53 0 0 1-1.658 3.014 4.14 4.14 0 0 1-2.041.896 5.5 5.5 0 0 1-.794.058h-.051a4.3 4.3 0 0 1-2.317-.704 4.54 4.54 0 0 1-2.035-3.315 5 5 0 0 1-.032-.512l-.096-1.005.141-.39.492-1.376h7.949l.461 1.26.134.365z"/><path fill="#FFCB00" stroke="#340051" stroke-linejoin="round" stroke-width=".192" d="M114.965 12.575v1.088H102.76v-1.101a.4.4 0 0 1 .397-.403h.345c.423-2.106 1.914-3.79 3.84-4.378v-.685h3.04v.685c1.933.589 3.424 2.272 3.847 4.378h.332c.224 0 .41.185.41.416z"/><path stroke="#340051" stroke-miterlimit="10" stroke-width=".192" d="M110.965 16.204a2.285 2.285 0 0 1-4.128.172"/><path fill="#fff" stroke="#340051" stroke-linejoin="round" stroke-width=".192" d="M115.022 16.012c-.198.806-.8 1.356-1.337 1.222a.72.72 0 0 1-.378-.237c.019-.18.032-.365.032-.544l.122-1.171.064-.627c.192-.205.409-.333.627-.365a.9.9 0 0 1 .256.02c.538.133.819.895.614 1.702ZM104.411 16.946a.75.75 0 0 1-.416.288c-.537.134-1.139-.416-1.337-1.223-.199-.806.076-1.567.614-1.702a.6.6 0 0 1 .211-.02c.263.02.519.174.73.43l.07.704.096 1.01c0 .174.007.346.032.513Z"/><path fill="#340051" stroke="#340051" stroke-linejoin="round" stroke-width=".192" d="m104.917 13.656-.493 1.376-.14.39-.071-.703c-.211-.256-.473-.416-.729-.43l-.212-.626h1.645zM114.261 13.656l-.109.634c-.224.032-.435.16-.627.358l-.064.628-.134-.365-.461-1.261h1.395z"/><path stroke="#340051" stroke-miterlimit="10" stroke-width=".192" d="m110.024 55.506.589-1.767.474-4.742"/><path fill="#fff" stroke="#340051" stroke-linejoin="round" stroke-width=".192" d="M108.328 61.439v3.533c-3.872 1.356-7.066.204-8.826-.762l.743-2.822c2.029.524 5.421 1.1 8.083.05Z"/><path fill="#A765CB" stroke="#340051" stroke-linejoin="round" stroke-width=".192" d="M108.328 64.978v2.074c0 .825-.371 1.606-1.011 2.124l-.269.218h-5.184c-.537 0-1.024-.3-1.267-.78l-.954-1.889c-.172-.339-.25-.71-.224-1.088l.084-1.433c1.766.973 4.953 2.118 8.825.761zM120.776 64.005v2.81c0 .37-.179.723-.486.934l-.506.352-.569.403a3.9 3.9 0 0 1-1.632.653l-1.088.16a4 4 0 0 1-1.159-.006l-.819-.135-.326-.051a1.68 1.68 0 0 1-1.395-1.42l-.372-2.663s4.576 1.325 8.352-1.03z"/><path fill="#fff" stroke="#340051" stroke-linejoin="round" stroke-width=".192" d="M120.776 62.661v1.344c-3.776 2.355-8.352 1.03-8.352 1.03l.544-1.612v-2.279l-.044-.083c1.619.237 4.684.48 7.065-.525 0 .34.077.672.224.973l.557 1.152z"/><path fill="#A765CB" stroke="#340051" stroke-linejoin="round" stroke-width=".192" d="m102.44 59.25-2.054 1.612c-.768 0-.839-.716-.66-1.459l.737-3.123c.051-.23.096-.467.115-.704l.281-3.187.992-.205.442-.09.09 3.136c.019.57.038 1.127.115 1.69a7.5 7.5 0 0 1-.039 2.336zM102.555 49.246v2.778l-.275.058-.441.09-.992.204-.717.147.217-1.024a2.94 2.94 0 0 1 1.492-1.977q.259-.143.556-.237l.16-.045z"/><path fill="#340051" stroke="#340051" stroke-linejoin="round" stroke-width=".192" d="M123.534 75.218v1.229a6.9 6.9 0 0 1-6.137-.73l-2.458-1.613-.416-4.928.819.135c.384.064.775.064 1.159.006l1.088-.16a3.8 3.8 0 0 0 1.632-.653l.569-.403.058 3.54 3.225 2.61c.295.237.461.59.461.967ZM107.029 69.4l-.429 5.018-2.458 1.612a6.93 6.93 0 0 1-6.137.724v-1.23c0-.37.173-.729.46-.96l3.233-2.61.038-2.554z"/><path stroke="#340051" stroke-miterlimit="10" stroke-width=".192" d="M103.496 12.159h1.574M112.776 12.159h1.575M107.343 8.12v-.55M110.376 8.12v-.55"/></g></g></g><defs><clipPath id="a"><path fill="#fff" d="M0 0h165v84H0z"/></clipPath><clipPath id="b"><path fill="#fff" d="M0-25h184v128H0z"/></clipPath><clipPath id="c"><path fill="#fff" d="M0-28.2h163.2v135.04H0z"/></clipPath></defs></svg>