<svg xmlns="http://www.w3.org/2000/svg" width="165" height="84" fill="none" viewBox="0 0 165 84"><rect width="165" height="84" fill="#fff" rx="12"/><g clip-path="url(#a)"><path stroke="#2E054E" stroke-miterlimit="10" stroke-width=".3" d="M36.51 29.41c.28-.08.54-.19.79-.32m-.79.32c-.39.11-.77.17-1.16.18-.74.01-1.47.18-2.14.48a5.6 5.6 0 0 1 2.14-.47c.38 0 .77-.06 1.16-.18zM20.18 39.39l2.38-1.74z"/><path fill="#999" stroke="#2E054E" stroke-linejoin="round" stroke-width=".3" d="M37.3 29.09c-.25.13-.51.24-.79.32-.38.11-.77.17-1.16.18a5.6 5.6 0 0 0-2.14.47c-.4.18-.79.4-1.14.66l-9.51 6.93-2.38 1.74c-1.23.9-2.06 2.23-2.23 3.72a5.82 5.82 0 0 1-2.37 4.02 6.11 6.11 0 0 1-7.66-.39c-.01-.01-.04 0-.02.02l.51.67a6.08 6.08 0 0 0 5.96 1.43c2.36-.7 3.94-2.69 4.2-4.93.17-1.48 1-2.82 2.23-3.71l12.1-8.82c.88-.64 1.95-.97 3.04-.98.4 0 .8-.06 1.19-.18 2.23-.66 3.48-2.96 2.8-5.13-.2-.64-.55-1.2-.99-1.65.15.26.28.54.37.83.6 1.9-.29 3.9-2.01 4.81z"/><path fill="#E6E6E6" stroke="#2E054E" stroke-linejoin="round" stroke-width=".3" d="M34.06 21.55c-1.46.44-2.51 1.58-2.86 2.93-.22.84-.7 1.59-1.41 2.11l-13.07 9.52c-.95.69-2.17.93-3.32.66a6.14 6.14 0 0 0-3.15.09c-2.14.64-3.65 2.34-4.1 4.33-.01.05.03.09.08.07L7.1 41l2.75-.82c.26-.08.53.07.61.32l.14.46 1.24 3.95a.47.47 0 0 1-.32.59l-3.54 1.05c-.09.03-.11.13-.04.2.24.22.5.41.77.59 1.44.92 3.26 1.23 5.03.7.68-.2 1.29-.51 1.83-.91a5.86 5.86 0 0 0 2.37-4.02c.17-1.48 1-2.82 2.23-3.72l2.38-1.73 9.51-6.93q.54-.39 1.14-.66c.67-.29 1.4-.46 2.14-.48.38 0 .77-.06 1.16-.18.28-.08.54-.19.79-.32 1.72-.91 2.61-2.91 2.01-4.81-.09-.3-.22-.57-.37-.83-.95-1.64-2.97-2.48-4.89-1.9zm-.48 4.44c-.29-.92.24-1.89 1.18-2.17a1.82 1.82 0 0 1 1.5.21c.33.22.6.54.72.95.29.92-.24 1.89-1.18 2.17-.21.06-.42.09-.62.07-.72-.04-1.37-.51-1.59-1.23z"/><path fill="#B4B9D9" d="M35.01 24.43c.18-.14.39-.26.62-.33.21-.06.42-.08.63-.07-.21-.02-.42 0-.63.07-.24.07-.45.18-.62.33"/><path stroke="#2E054E" stroke-miterlimit="10" stroke-width=".3" d="M35.63 24.1c-.23.07-.44.19-.62.33.17-.15.38-.26.62-.33Zm0 0c.21-.06.42-.08.63-.07-.21-.02-.42 0-.63.07Z"/><path fill="#999" stroke="#2E054E" stroke-linejoin="round" stroke-width=".3" d="M34.45 26.27c-.22-.69.03-1.41.56-1.84a1.77 1.77 0 0 1 1.25-.4c-.43-.28-.97-.37-1.5-.21-.94.28-1.47 1.25-1.18 2.17.22.71.87 1.18 1.59 1.23-.33-.22-.6-.54-.72-.94zM10.61 40.96l-.15-.46a.486.486 0 0 0-.61-.31l-2.76.82-.85.25c-.06.02-.08.09-.05.14l.39.51c.09.12.26.17.41.13l3.61-1.07z"/><path fill="#fff" stroke="#2E054E" stroke-linejoin="round" stroke-width=".3" d="m12.75 20.97 1.36-.21-1.36-.21c-.92-.14-1.64-.88-1.78-1.83l-.36-2.44-.36 2.44c-.14.94-.86 1.68-1.78 1.83l-1.36.21 1.36.21c.92.14 1.64.88 1.78 1.83l.36 2.44.36-2.44c.14-.94.86-1.68 1.78-1.83ZM66.42 5.84l1.02-.16-1.02-.16c-.69-.11-1.24-.67-1.34-1.38l-.27-1.84-.27 1.84c-.1.71-.65 1.27-1.34 1.38l-1.02.16 1.02.16c.69.11 1.24.67 1.34 1.38l.27 1.84.27-1.84c.1-.71.65-1.27 1.34-1.38Z"/><path fill="#EB4974" stroke="#2E054E" stroke-linejoin="round" stroke-width=".3" d="M91.1 3.3v4.77l-2.27-.58a.35.35 0 0 1-.27-.34v-3.5c0-.2.16-.35.35-.35h2.19Z"/><path fill="#fff" stroke="#2E054E" stroke-miterlimit="10" stroke-width=".3" d="M107.11 9.77h-1.25c-1.4 0-2.53 1.13-2.53 2.53h-5.56v-1.36c0-.68-.46-1.28-1.13-1.45L94.3 8.9l-3.21-.82V3.3h10.92c1.22 0 2.36.62 3.03 1.64l2.55 3.89c.27.4-.02.94-.51.94z"/><path fill="#EB4974" d="M102.92 12.29h-4.61v2.66h4.61z"/><mask id="b" width="5" height="3" x="98" y="12" maskUnits="userSpaceOnUse" style="mask-type:luminance"><path fill="#fff" d="M102.92 12.29h-4.61v2.66h4.61z"/></mask><g stroke="#000" stroke-miterlimit="10" stroke-width=".3" mask="url(#b)"><path d="M99.46 11.78v3.75M100.61 11.78v3.75M101.77 11.78v3.75"/></g><path stroke="#2E054E" stroke-linejoin="round" stroke-width=".3" d="M102.92 12.29h-4.61v2.66h4.61z"/><path fill="#fff" stroke="#2E054E" stroke-miterlimit="10" stroke-width=".3" d="M111.84 31.32v14.51c0 1.9-1.54 3.44-3.44 3.44H96.37a3.44 3.44 0 0 1-3.44-3.44v-13.1c0-1.6.8-3.1 2.13-3.99l3.81-2.56c.33-.22.49-.58.49-.93 0-.29-.11-.57-.33-.79-.44-.44-.44-1.15 0-1.59l.39-.39c.44-.44.44-1.15 0-1.59l-.58-.58a1.11 1.11 0 0 1 0-1.58c.37-.37.43-.94.17-1.38l-1.31-2.16c-.06-.1.01-.23.13-.23h5.32c.14 0 .28.08.35.2l7.46 12.9c.58.99.88 2.12.88 3.27z"/><path fill="#EB4974" stroke="#2E054E" stroke-linejoin="round" stroke-width=".3" d="M96.65 9.48c-.04.21-.09.43-.16.64-.67 2.4-2.18 4.19-3.74 4.65a.44.44 0 0 1-.48-.16l-.4-.52a.447.447 0 0 1 .05-.6c.94-.85 1.75-2.16 2.19-3.74.08-.29.15-.58.2-.87l2.34.59z"/><path stroke="#2E054E" stroke-linejoin="round" stroke-width=".3" d="m84.12 3.09-6.23-1.95M83.57 5.47h-6.32M83.85 7.8l-5.41 2.42"/><path fill="gray" stroke="#2E054E" stroke-linejoin="round" stroke-width=".3" d="M57.95 17.74c2.761 0 5-.412 5-.92s-2.239-.92-5-.92-5 .412-5 .92 2.238.92 5 .92Z"/><path fill="gray" stroke="#2E054E" stroke-linejoin="round" stroke-width=".3" d="M62.95 16.82v2.92c0 .51-2.24.92-5 .92s-5-.41-5-.92v-2.92c0 .51 2.24.92 5 .92s5-.41 5-.92Z"/><path fill="gray" stroke="#2E054E" stroke-linejoin="round" stroke-width=".3" d="M63.43 19.95v1.82c0 .51-2.44.92-5.45.92s-5.45-.41-5.45-.92v-1.68l.42-.36c0 .51 2.24.92 5 .92s5-.41 5-.92l.48.21z"/><path fill="#fff" d="M78.52 18.48a4.234 4.234 0 0 0-4.2-3.72h-.05c-1.55 0-3.08.43-4.4 1.24l-6.44 3.96v1.82c0 .51-2.44.92-5.45.92s-5.45-.41-5.45-.92l-8.98 17.44c-.35.69-.52 1.45-.48 2.23l1.06 22.19a4.97 4.97 0 0 0 1.46 3.29l4.73 4.69a4.96 4.96 0 0 0 5.18 1.15l23.29-8.33c1.9-.68 3.2-2.43 3.29-4.44l.32-6.7c.07-1.42.02-2.85-.16-4.26l-3.73-30.56zM75.69 36.8l-.45.35s-.05.05-.09.06c-.17.09-.41.05-.49-.19L71.18 26.8c-.29-2.05.94-3.76 2.3-4.98.45-.41.92-.77 1.35-1.07l1.71 13.99c.1.79-.23 1.57-.86 2.05z"/><mask id="c" width="40" height="60" x="43" y="14" maskUnits="userSpaceOnUse" style="mask-type:luminance"><path fill="#fff" d="M78.52 18.48a4.234 4.234 0 0 0-4.2-3.72h-.05c-1.55 0-3.08.43-4.4 1.24l-6.44 3.96v1.82c0 .51-2.44.92-5.45.92s-5.45-.41-5.45-.92l-8.98 17.44c-.35.69-.52 1.45-.48 2.23l1.06 22.19a4.97 4.97 0 0 0 1.46 3.29l4.73 4.69a4.96 4.96 0 0 0 5.18 1.15l23.29-8.33c1.9-.68 3.2-2.43 3.29-4.44l.32-6.7c.07-1.42.02-2.85-.16-4.26l-3.73-30.56zM75.69 36.8l-.45.35s-.05.05-.09.06c-.17.09-.41.05-.49-.19L71.18 26.8c-.29-2.05.94-3.76 2.3-4.98.45-.41.92-.77 1.35-1.07l1.71 13.99c.1.79-.23 1.57-.86 2.05z"/></mask><g mask="url(#c)"><path fill="#E6E6E6" stroke="#340051" stroke-linejoin="round" stroke-width=".3" d="m52.94 74.7-1.02-27.07c-.04-.95.04-1.89.21-2.82l4.53-23.59-8.95-1.48-10.35 32.91 4.32 21.41 11.25.64z"/></g><path stroke="#2E054E" stroke-miterlimit="10" stroke-width=".3" d="M78.52 18.48a4.234 4.234 0 0 0-4.2-3.72h-.05c-1.55 0-3.08.43-4.4 1.24l-6.44 3.96v1.82c0 .51-2.44.92-5.45.92s-5.45-.41-5.45-.92l-8.98 17.44c-.35.69-.52 1.45-.48 2.23l1.06 22.19a4.97 4.97 0 0 0 1.46 3.29l4.73 4.69a4.96 4.96 0 0 0 5.18 1.15l23.29-8.33c1.9-.68 3.2-2.43 3.29-4.44l.32-6.7c.07-1.42.02-2.85-.16-4.26l-3.73-30.56zM75.69 36.8l-.45.35s-.05.05-.09.06c-.17.09-.41.05-.49-.19L71.18 26.8c-.29-2.05.94-3.76 2.3-4.98.45-.41.92-.77 1.35-1.07l1.71 13.99c.1.79-.23 1.57-.86 2.05z"/><path fill="#E6E6E6" stroke="#2E054E" stroke-linejoin="round" stroke-width=".3" d="m75.69 36.8-.45.35c.06-.06.1-.16.08-.27l-1.83-15.05c.45-.41.92-.77 1.35-1.07l1.71 13.99c.1.79-.23 1.57-.86 2.05Z"/><path stroke="#2E054E" stroke-miterlimit="10" stroke-width=".3" d="m75.23 37.15-.08.06M74.84 20.76c.97-.66 1.74-1.02 1.74-1.02"/><path fill="#E6E6E6" stroke="#2E054E" stroke-linejoin="round" stroke-width=".3" d="m56.94 67.25-.25-18.64c-.01-1.09.37-2.14 1.09-2.96 2.27-2.59 7.48-8.42 10.55-10.81a.7.7 0 0 1 1.08.29l5.34 12.98a6.64 6.64 0 0 0 4.56 3.91c.42.1.7.49.7.91v5.73c0 .65-.41 1.23-1.02 1.46l-21.11 7.79a.706.706 0 0 1-.95-.65z"/><path fill="#FFCD00" stroke="#2E054E" stroke-linejoin="round" stroke-width=".3" d="M73.32 53.66v.45c-.23 6.17-7.99 9.73-8.22 3.78v-.44c0-3.61 2.62-7.26 4.11-10.34 1.21 1.92 4.12 2.95 4.13 6.55zM64.81 46.95v.2c-.1 2.79-3.61 4.4-3.71 1.71v-.2c0-1.63 1.18-3.28 1.86-4.67.55.87 1.86 1.33 1.86 2.96z"/><path fill="#CCC" stroke="#2E054E" stroke-linejoin="round" stroke-width=".3" d="m100.03 79.28.68 3.43 2.97.58-.77-.85-.42-2.88.99-2.17 9.35-4.01h-2.47l-8.85 3.51z"/><path fill="#CCC" stroke="#2E054E" stroke-linejoin="round" stroke-width=".3" d="m102.49 79.56.42 2.88.77.85 9.56-3.87 1.26-2.25v-2.24l-1.26-1.55h-.41l-9.35 4.01zM81.96 51.59c2.82.46 5.72-1.91 7.55-5.76-.09-.08-.05-.16.05-.12.69-1.47 1.21-3.15 1.52-4.96.2-1.16.29-2.31.29-3.4v-.27c-.07-5.03-2.16-9.04-5.34-9.58a4.2 4.2 0 0 0-1.42 0c3.33.57 5.47 4.93 5.33 10.3 0 .26-.01.53-.03.79-.04.71-.12 1.43-.25 2.16-.23 1.33-.57 2.59-1.01 3.74-.05.14-.1.27-.16.4-1.51 3.7-3.97 6.27-6.53 6.69z"/><path fill="#999" stroke="#2E054E" stroke-linejoin="round" stroke-width=".3" d="M79.67 50.49c.05.04.09.08.15.11.07.06.15.12.22.18q.87.63 1.89.81h.03c2.56-.41 5.03-2.99 6.53-6.69.06-.13.11-.27.16-.4.44-1.16.78-2.42 1.01-3.75.13-.73.21-1.45.25-2.16.02-.27.03-.53.03-.79.13-5.38-2.01-9.73-5.33-10.3h-.02a4.3 4.3 0 0 0-1.47.01c-.04 0-.07 0-.11.01-.05.01-.11.02-.16.04l.49.3 3.49 2.19c.29.18.37.58.16.86l-.62.85 2.15 1.18c.27.15.25.53-.03.65l-2.01.84 2.27 1.14c.47.23.44.91-.04 1.11l-2.38.97 2.06 1.15c.5.28.39 1.04-.18 1.16l-2.45.53 2.02 1.88c.39.36.15 1.01-.39 1.03l-3.4.13 2.14 1.76c.4.32.18.97-.33.99l-2.84.13 1.2 1.09c.53.49.18 1.38-.54 1.38h-1.84l.13.61c.11.51-.28.99-.8.99h-1.46zM90.36 46.38c.59.24 1.23.25 1.87.06 1.34-.39 2.64-1.63 3.35-3.38.87-2.16.53-4.4-.69-5.5a2.5 2.5 0 0 0-1.46-.67c-.41-.06-.83-.01-1.25.11.28 0 .54.06.81.16.46.18.84.5 1.13.91.78 1.09.92 2.87.23 4.59-.55 1.37-1.51 2.41-2.54 2.9-.74.35-1.52.43-2.23.15-.02.04.47.54.79.66z"/><path fill="#CCC" stroke="#2E054E" stroke-linejoin="round" stroke-width=".3" d="M89.57 45.72c.7.28 1.49.21 2.23-.15 1.04-.49 1.99-1.52 2.54-2.9.68-1.72.55-3.49-.23-4.59-.29-.41-.67-.73-1.13-.91-.27-.11-.53-.16-.81-.16-.26-.02-.52.01-.78.08v.27c0 1.09-.09 2.24-.29 3.4-.31 1.81-.83 3.49-1.52 4.96z"/><path fill="#fff" stroke="#2E054E" stroke-miterlimit="10" stroke-width=".3" d="M96.7 37.06c-.09 0-.18 0-.27.01l.9.06c-.05-.01-.11-.03-.16-.03s-.1-.01-.16-.02c-.11-.01-.21-.02-.32-.02zM93.4 47.53c.09.05.18.09.28.13.13.06.27.09.4.12z"/><path fill="#CCC" d="M90.54 76.48v2.21l3.04 2.33.4.97 5.57 1.3 1.16-.58-.68-3.43 1.48-2.39 8.85-3.51-.34-3.58c0-.09-.05-.17-.13-.23a2.96 2.96 0 0 1-1.23-2.07c-.34-2.87-1.14-9.72-1.65-13.4-.22-1.56.49-3.11 1.83-3.93.24-.15.49-.29.74-.43.46-.25.89-.58 1.23-.99.82-.99 1.51-2.21 1.4-3.49-.25-2.96-2.47-3.55-2.47-3.55v-.31c0-.51-.38-.94-.89-.99l-1.47-.17a1.25 1.25 0 0 1-.96-.65v-.01c-.2-.37-.54-.65-.94-.77l-7.32-2.12c-.3-.09-.62-.08-.92.02l-1.04.34h.52c.11 0 .21 0 .32.02.06 0 .11.01.16.02.06 0 .11.02.16.03.08.01.16.04.25.06.08.03.16.05.25.08 2.06.82 2.81 3.81 1.66 6.69-1.06 2.66-3.38 4.28-5.36 3.83l-.03.87c-.03.53.18 1.04.56 1.41l.63.61v.05c0 .35.15.68.37.91.23.22.55.37.9.37.71 0 1.29.57 1.29 1.28v3.85l1.13.47c.68.28 1.2.87 1.37 1.59.61 2.57.86 5.95.96 7.84.04.83-.47 1.6-1.26 1.88l-1.82.66c-.7.25-1.29.75-1.64 1.41-.22.42-.49.82-.84 1.13l-2.28 2.06-1.02.92c-.26.24-.41.57-.41.93v.38c0 .26-.26.45-.51.37l-.97-.32z"/><mask id="d" width="23" height="48" x="90" y="36" maskUnits="userSpaceOnUse" style="mask-type:luminance"><path fill="#fff" d="M90.54 76.48v2.21l3.04 2.33.4.97 5.57 1.3 1.16-.58-.68-3.43 1.48-2.39 8.85-3.51-.34-3.58c0-.09-.05-.17-.13-.23a2.96 2.96 0 0 1-1.23-2.07c-.34-2.87-1.14-9.72-1.65-13.4-.22-1.56.49-3.11 1.83-3.93.24-.15.49-.29.74-.43.46-.25.89-.58 1.23-.99.82-.99 1.51-2.21 1.4-3.49-.25-2.96-2.47-3.55-2.47-3.55v-.31c0-.51-.38-.94-.89-.99l-1.47-.17a1.25 1.25 0 0 1-.96-.65v-.01c-.2-.37-.54-.65-.94-.77l-7.32-2.12c-.3-.09-.62-.08-.92.02l-1.04.34h.52c.11 0 .21 0 .32.02.06 0 .11.01.16.02.06 0 .11.02.16.03.08.01.16.04.25.06.08.03.16.05.25.08 2.06.82 2.81 3.81 1.66 6.69-1.06 2.66-3.38 4.28-5.36 3.83l-.03.87c-.03.53.18 1.04.56 1.41l.63.61v.05c0 .35.15.68.37.91.23.22.55.37.9.37.71 0 1.29.57 1.29 1.28v3.85l1.13.47c.68.28 1.2.87 1.37 1.59.61 2.57.86 5.95.96 7.84.04.83-.47 1.6-1.26 1.88l-1.82.66c-.7.25-1.29.75-1.64 1.41-.22.42-.49.82-.84 1.13l-2.28 2.06-1.02.92c-.26.24-.41.57-.41.93v.38c0 .26-.26.45-.51.37l-.97-.32z"/></mask><g mask="url(#d)"><path fill="#999" stroke="#2E054E" stroke-linejoin="round" stroke-width=".3" d="m97.85 57.15 1.69-.31s.68-3.33-.85-3.99c0 0-.42-3.01.85-5.56 0 0-2.24 2.88-7.33 1.58s5.64 8.29 5.64 8.29z"/></g><path stroke="#2E054E" stroke-linejoin="round" stroke-width=".3" d="M90.54 76.48v2.21l3.04 2.33.4.97 5.57 1.3 1.16-.58-.68-3.43 1.48-2.39 8.85-3.51-.34-3.58c0-.09-.05-.17-.13-.23a2.96 2.96 0 0 1-1.23-2.07c-.34-2.87-1.14-9.72-1.65-13.4-.22-1.56.49-3.11 1.83-3.93.24-.15.49-.29.74-.43.46-.25.89-.58 1.23-.99.82-.99 1.51-2.21 1.4-3.49-.25-2.96-2.47-3.55-2.47-3.55v-.31c0-.51-.38-.94-.89-.99l-1.47-.17a1.25 1.25 0 0 1-.96-.65v-.01c-.2-.37-.54-.65-.94-.77l-7.32-2.12c-.3-.09-.62-.08-.92.02l-1.04.34h.52c.11 0 .21 0 .32.02.06 0 .11.01.16.02.06 0 .11.02.16.03.08.01.16.04.25.06.08.03.16.05.25.08 2.06.82 2.81 3.81 1.66 6.69-1.06 2.66-3.38 4.28-5.36 3.83l-.03.87c-.03.53.18 1.04.56 1.41l.63.61v.05c0 .35.15.68.37.91.23.22.55.37.9.37.71 0 1.29.57 1.29 1.28v3.85l1.13.47c.68.28 1.2.87 1.37 1.59.61 2.57.86 5.95.96 7.84.04.83-.47 1.6-1.26 1.88l-1.82.66c-.7.25-1.29.75-1.64 1.41-.22.42-.49.82-.84 1.13l-2.28 2.06-1.02.92c-.26.24-.41.57-.41.93v.38c0 .26-.26.45-.51.37l-.97-.32z"/><path fill="#CCC" stroke="#2E054E" stroke-linejoin="round" stroke-width=".3" d="M92.02 76.43v-.38c0-.35.15-.69.41-.93l1.02-.92h-1.47l-1.44 2.28.97.32c.25.08.51-.11.51-.37ZM90.36 46.38l3.04 1.14.68.26h.04s0 .01.01.01c1.97.44 4.29-1.17 5.36-3.83 1.15-2.87.4-5.86-1.66-6.69-.08-.03-.16-.06-.25-.08-.08-.03-.16-.05-.25-.06l-.9-.06h-.25l-2.78-.18c.23.03.45.08.66.16.3.12.57.29.8.51 1.22 1.1 1.56 3.34.69 5.5-.7 1.75-2.01 2.99-3.35 3.38-.63.18-1.27.18-1.87-.06z"/><path stroke="#2E054E" stroke-miterlimit="10" stroke-width=".3" d="M94.13 47.8h-.01M93.41 36.9l-.28-.02"/><path fill="#ED264F" stroke="#2E054E" stroke-linejoin="round" stroke-width=".3" d="m100.07 74.64-2.13 2.57c-.09.11-.14.25-.14.39v1.31c0 .41-.4.71-.79.59l-3.38-1.03a.62.62 0 0 1-.44-.59v-1.63c0-.15.06-.3.16-.41l2.48-2.75a.62.62 0 0 1 .59-.19l3.32.75c.45.1.63.64.34.99z"/><path fill="#E6E6E6" stroke="#2E054E" stroke-linejoin="round" stroke-width=".3" d="M71.34 48.9c.27.51.88.92 1.47 1.22.72.37 1.54.51 2.35.42.39-.04.81-.07 1.24-.08h3.26v.01h1.46c.53.01.92-.47.8-.98l-.13-.61h1.84c.72 0 1.07-.89.54-1.38l-1.2-1.09 2.84-.13c.51-.02.73-.66.33-.99L84 43.53l3.4-.13c.53-.02.78-.67.39-1.03l-2.02-1.88 2.45-.53c.56-.12.68-.87.18-1.16l-2.06-1.15 2.38-.97c.49-.2.51-.87.04-1.11l-2.27-1.14 2.01-.84c.28-.12.3-.51.03-.65l-2.15-1.18.62-.85c.21-.28.13-.68-.16-.86l-3.49-2.19-.49-.3-1.42-.89c-.46-.24-.94-.53-1.45-.83-1.18-.73-2.67-.7-3.85.02-.42.25-.86.53-1.29.82 1.01-.52 2.05-.73 3.08-.55 1.27.22 2.36.98 3.22 2.14.16.22.32.45.46.7 1.48 2.49 2.07 6.31 1.37 10.41-.48 2.81-1.49 5.29-2.78 7.18-.6.87-1.26 1.61-1.95 2.19-.32.27-.64.49-.97.7-1.11.68-2.29.96-3.45.77-.93-.16-1.77-.61-2.49-1.31z"/><path fill="#fff" d="M80.65 50.69s-.32-.04-.83-.09c-.42-.04-.97-.08-1.56-.11l-.32-.02"/><path stroke="#2E054E" stroke-miterlimit="10" stroke-width=".3" d="M80.65 50.69s-.32-.04-.83-.09c-.42-.04-.97-.08-1.56-.11l-.32-.02"/><path fill="#fff" d="M77.84 50.48h-.1l-.17-.01h-1.14"/><path stroke="#2E054E" stroke-miterlimit="10" stroke-width=".3" d="M77.84 50.48h-.1l-.17-.01h-1.14M81.24 50.5l-1.57-.01M84.01 43.56l-.62.02M80.21 46.56l-.33.01M77.84 50.48h-.1"/><path fill="#CCC" d="m67.89 40.37.48.21c-.21.33-.33-.05-.4.39l.02-.03c.2.1-.11.31.03.59 0-.06.11-.02.15-.06l-.06.19s.02-.03.04-.01c.16.14-.06.15.08.31.02-.13.18-.11.25-.06l-.19.28.25-.13c.05.24-.31.66.07.73l.02-.13c.06 0 .26.04.16.22-.02.05-.13.09-.16.07l.13.24s.08-.04.13-.06c.02-.02.05-.02.09-.01v.05l.06-.02-.04.16c0 .14 0 .25-.04.27l-.2-.39s-.04.02-.06.04l-.02.02s-.08.09-.1.13h.02c-.14.26.03.47.14.69h.17s-.1.04-.13.04c.08.02.02.11-.05.23-.06.11-.25.25-.15.36l-.16-.09c-.07.29.13.65.27.75.15.14.33.25.32.45l-.1.33.2-.02c-.04.19-.16.28 0 .49.26.25.44.54.63.83l.19.33.04-.04s.06.06.07.09c.1.17.16.35.25.57.1.33.23.67.65.79v-.09c.28.29 0-.09.29.01-.11.22.28.45.44.64 0-.06-.08-.1-.12-.17.06-.02.15-.12.22-.03.04.42.57.66.95.87.09-.13.48-.16.69-.37.02.07.07.2.13.32.16-.08.25 0 .35.1-.13 0-.25-.02-.33-.05v.02s-.03-.02-.05-.02c-.07-.01-.12-.03-.12-.04-.18.11 0 .11-.05.29.15.02.43.12.48-.01.08 0 .14-.01.23-.03.05.02.11.04.17.03l-.02-.02s.02-.04.03-.05c.27-.07.65.16.91.24-.26-.18.01-.26-.01-.41 0 0-.25.07-.57.09.03-.02.04-.04.04-.11.26-.19.51.11.9-.1-.03 0-.1-.03-.09-.1.12-.08.28 0 .34.09 0-.16.24-.36.4-.35.17.07.18.14.39.02l-.14-.05c.2-.19.27.02.42-.11-.05.03-.09-.05-.04-.1.29-.08.32-.03.62.04l-.12-.12c.24-.05.72-.15.66-.33.16.27.58-.2.72-.36-.06.04-.12 0-.16-.03.51-.12.69-.64 1-.97l-.16-.23c.16-.17.61.12.78-.1h-.17c.33-.34.43-.51.61-.85l-.15-.1c.14-.06.23-.21.38-.28-.2-.48.83-.93.65-1.66l.32.12c.09-.2.26-.42.08-.62v.04c-.26-.09.07-.2.07-.34.06-.08.26-.11.27 0 .07-.58.52-1.31.34-1.74.28-.49.65-.84.76-1.44h-.04c0-.22.01-.64-.27-.7.15-.4.59-.61.54-1.15l-.12.09c-.03-.14.12-.33.17-.37 0-.05-.05-.02-.1-.02-.07-.14.09-.19.13-.29l-.1.03c-.14-.43.31-1.04.29-1.59-.03.09-.14.04-.18 0 .32-.2.27-.82.33-1.04l-.12.14c.2-.44-.32-.38-.13-.82l.19.25c-.06-.18 0-.33.13-.29-.11-.21-.24-.02-.28-.33-.09 0-.05.23-.16.13-.08-.14-.17-.28-.26-.41 0 0-.03-.07-.02-.2.39 0 0-.35.39-.18-.03-.62-.35-1.09-.28-1.64-.4-.14-.23-1.01-.69-.84-.07-.28-.06-.53.08-.76.05.04 0 .14 0 .2.1-.11.02-.46-.04-.6-.03.22-.03.55-.17.75-.02-.27.03-.67.03-.84l-.26.02c.1-.27-.25-.1-.11-.4h.08c-.17-.36.06-.47-.09-.83l-.08.05c-.09-.1.02-.38-.24-.4l.11.23c-.17.06-.33-.07-.44-.1-.09-.25.2-.22.16-.35-.17.03-.08.04-.18.2-.09-.29-.27-.65-.22-.96-.02 0-.04.04-.04.04-.2-.24-.16-.65-.4-.7l.02.06c-.33-.03-.32-.65-.63-.38-.14-.03.21.18-.07.19-.35-.14.01-.4-.28-.52 0 0 0 .02-.02.04-.18-.15-.42-.37-.65-.54-.23.06-.43-.06-.67-.17-.23-.11-.5-.19-.72-.03.14-.11-.06-.18-.05-.23v.05c-.13-.02-.13-.14-.18-.21-.13.09-.38-.17-.46-.09 0-.09-.12-.07-.25-.07.25.1.07.18.18.32-.35.04-.43-.38-.83-.27-.06.05-.13.12-.19.19-.09-.24-.43-.06-.45-.15-.04.09-.13.16-.08.28-.16-.01-.34.18-.45.06l.13-.11c-.22.12-.42.13-.61.16-.09 0-.18.02-.27.05-.05.01-.26.14-.27.21l.22.31c-.1.26-.47.07-.5.37 0-.15.02-.12-.17-.14.05-.07.25-.08.36-.17h-.38l.46-.2c-.26 0-.22.02-.24-.15-.31.07-.16.33-.48.37-.05.1.12.15.06.28-.25.04-.23.39-.4.45.02 0 .04 0 .05.02-.14.06-.26.18-.39.14l.12-.15c-.12.11-.27.03-.46.32-.23.08-.51.11-.33-.08-.16.04 0 .34.09.3 0 .28-.1.33-.17.39l-.04.04-.26.13v.07c-.27.18 0 .09-.02.31-.22.22-.25-.13-.45.3-.02.04-.07-.05-.08-.11-.12.3-.31.37-.39.69.04-.13.05-.25-.1-.14.14 0-.04.28-.04.42h-.08c.02.1.1.03.16 0-.02 0-.02-.05.01-.09.13-.09.34.11.24.32-.19.18-.34.04-.38-.03-.11.33-.45.09-.52.43-.04.07.11.43.02.65-.21.03.02-.32-.17-.27.2.54-.6.6-.58 1.19l.22.02c-.03.11-.06.22-.14.33l-.04-.2c-.09.09-.16.36.02.34-.26.18-.19.27-.22.53.08-.26-.02-.02.15-.16 0 .29-.08.28-.19.45.08 0 .15.12.13.2-.05.03-.1.09-.14.15l-.11.17.21.11s-.07.1-.1.16c.05-.06.12-.11.12-.15l.06.02s.07.03.11.05c-.1.06-.2.12-.33.18h-.02l.02-.03c0-.13-.11-.1-.23.02-.11.11-.21.3-.27.38.04.05.12.09.1.19-.18 0-.12.15-.22.19.03.14.22.02.16.25-.03.08-.14.07-.2.04.08.07.11.24.11.37.06-.03.01-.12.03-.14.1 0 .04.08.16.11-.01.11-.18 0-.15.16l.18-.09s0 .08-.04.11c.07-.02.19.01.25.04-.19.3-.41-.03-.57-.06.04.33-.21.53-.27.78h.18c-.05.1-.1.16-.18.19l-.03.18c.07-.09.13-.12.27-.11-.08.19-.08.46-.31.48h.04c.04.27.02.81.1.81-.07.19-.05.42-.1.54-.02.05-.06.09-.13.09-.07.17.27.45-.02.56.14.21.06.01.24-.03.14.2-.26.38.07.46-.11.23-.07-.05-.22.01.31.06.04.43.22.65-.12.1-.08-.09-.21.08.07-.02.09.07.1.11l-.19.04z"/><path stroke="#2E054E" stroke-linejoin="round" stroke-width=".3" d="m68.76 43.18-.13-.24c.03.02.14-.02.16-.07.1-.18-.1-.22-.16-.22l-.02.13c-.38-.07-.02-.49-.07-.73l-.25.13.19-.28c-.07-.05-.23-.07-.25.06-.14-.16.08-.17-.08-.31-.02-.02-.04.01-.04.01l.06-.19c-.04.04-.15 0-.15.06-.14-.28.17-.49-.03-.59l-.02.03c.07-.44.19-.06.4-.39l-.48-.21-.02.05.19-.04c-.01-.04-.03-.13-.1-.11.13-.17.09.02.21-.08-.18-.22.09-.59-.22-.65.15-.06.11.22.22-.01-.33-.08.07-.26-.07-.46-.18.04-.1.24-.24.03.29-.11-.05-.39.02-.56.07 0 .11-.04.13-.09.05-.12.03-.35.1-.54-.08 0-.06-.54-.1-.81h-.04c.23-.02.23-.29.31-.48-.14-.01-.2.02-.27.11l.03-.18c.08-.03.13-.09.18-.19h-.18c.06-.25.31-.45.27-.78.16.03.38.36.57.06-.06-.03-.18-.06-.25-.04.04-.03.04-.11.04-.11l-.18.09c-.03-.16.14-.05.15-.16-.12-.03-.06-.11-.16-.11-.02.02.03.11-.03.14 0-.13-.03-.3-.11-.37.06.03.17.04.2-.04.06-.23-.13-.11-.16-.25.1-.04.04-.19.22-.19.02-.1-.06-.14-.1-.19.06-.08.16-.27.27-.38.12-.12.23-.15.23-.02l-.02.03H69c.13-.06.23-.12.33-.18-.04-.02-.11-.05-.11-.05l-.06-.02c0 .04-.07.09-.12.15.03-.06.1-.16.1-.16l-.21-.11.11-.17c.04-.06.09-.12.14-.15.02-.08-.05-.2-.13-.2.11-.17.19-.16.19-.45-.17.14-.07-.1-.15.16.03-.26-.04-.35.22-.53-.18.02-.11-.25-.02-.34l.04.2c.08-.11.11-.22.14-.33l-.22-.02c-.02-.59.78-.65.58-1.19.19-.05-.04.3.17.27.09-.22-.06-.58-.02-.65.07-.34.41-.1.52-.43.04.07.19.21.38.03.1-.21-.11-.41-.24-.32-.03.04-.03.09-.01.09-.06.03-.14.1-.16 0h.08c0-.14.18-.42.04-.42.15-.11.14.01.1.14.08-.32.27-.39.39-.69.01.06.06.15.08.11.2-.43.23-.08.45-.3.02-.22-.25-.13.02-.31v-.07l.26-.13.04-.04c.07-.06.17-.11.17-.39-.09.04-.25-.26-.09-.3-.18.19.1.16.33.08.19-.29.34-.21.46-.32l-.12.15c.13.04.25-.08.39-.14-.01-.02-.03-.02-.05-.02.17-.06.15-.41.4-.45.06-.13-.11-.18-.06-.28.32-.04.17-.3.48-.37.02.17-.02.15.24.15l-.46.2H74c-.11.09-.31.1-.36.17.19.02.17-.01.17.14.03-.3.4-.11.5-.37l-.22-.31c.01-.07.22-.2.27-.21.09-.03.18-.05.27-.05.19-.03.39-.04.61-.16l-.13.11c.11.12.29-.07.45-.06-.05-.12.04-.19.08-.28.02.09.36-.09.45.15.06-.07.13-.14.19-.19.4-.11.48.31.83.27-.11-.14.07-.22-.18-.32.13 0 .25-.02.25.07.08-.08.33.18.46.09.05.07.05.19.18.21v-.05c-.01.05.19.12.05.23.22-.16.49-.08.72.03.24.11.44.23.67.17.23.17.47.39.65.54.02-.02.02-.04.02-.04.29.12-.07.38.28.52.28-.01-.07-.22.07-.19.31-.27.3.35.63.38l-.02-.06c.24.05.2.46.4.7 0 0 .02-.04.04-.04-.05.31.13.67.22.96.1-.16.01-.17.18-.2.04.13-.25.1-.16.35.11.03.27.16.44.1l-.11-.23c.26.02.15.3.24.4l.08-.05c.15.36-.08.47.09.83h-.08c-.14.3.21.13.11.4l.26-.02c0 .17-.05.57-.03.84.14-.2.14-.53.17-.75.06.14.14.49.04.6 0-.06.05-.16 0-.2-.14.23-.15.48-.08.76.46-.17.29.7.69.84-.07.55.25 1.02.28 1.64-.39-.17 0 .18-.39.18-.01.13.02.2.02.2.09.13.18.27.26.41.11.1.07-.13.16-.13.04.31.17.12.28.33-.13-.04-.19.11-.13.29l-.19-.25c-.19.44.33.38.13.82l.12-.14c-.06.22-.01.84-.33 1.04.04.04.15.09.18 0 .02.55-.43 1.16-.29 1.59l.1-.03c-.04.1-.2.15-.13.29.05 0 .1-.03.1.02-.05.04-.2.23-.17.37l.12-.09c.05.54-.39.75-.54 1.15.28.06.27.48.27.7h.04c-.11.6-.48.95-.76 1.44.18.43-.27 1.16-.34 1.74-.01-.11-.21-.08-.27 0 0 .14-.33.25-.07.34v-.04c.18.2.01.42-.08.62l-.32-.12c.18.73-.85 1.18-.65 1.66-.15.07-.24.22-.38.28l.15.1c-.18.34-.28.51-.61.85h.17c-.17.22-.62-.07-.78.1l.16.23c-.31.33-.49.85-1 .97.04.03.1.07.16.03-.14.16-.56.63-.72.36.06.18-.42.28-.66.33l.12.12c-.3-.07-.33-.12-.62-.04-.05.05-.01.13.04.1-.15.13-.22-.08-.42.11l.14.05c-.21.12-.22.05-.39-.02-.16-.01-.4.19-.4.35-.06-.09-.22-.17-.34-.09-.01.07.06.1.09.1-.39.21-.64-.09-.9.1 0 .07-.01.09-.04.11.32-.02.57-.09.57-.09.02.15-.25.23.01.41-.26-.08-.64-.31-.91-.24-.01.01-.03.05-.03.05l.02.02a.3.3 0 0 1-.17-.03 1 1 0 0 1-.23.03c-.05.13-.33.03-.48.01.05-.18-.13-.18.05-.29 0 .01.05.03.12.04.02 0 .05.02.05.02v-.02c.08.03.2.05.33.05-.1-.1-.19-.18-.35-.1-.06-.12-.11-.25-.13-.32-.21.21-.6.24-.69.37-.38-.21-.91-.45-.95-.87-.07-.09-.16.01-.22.03.04.07.12.11.12.17-.16-.19-.55-.42-.44-.64-.29-.1-.01.28-.29-.01v.09c-.42-.12-.55-.46-.65-.79-.09-.22-.15-.4-.25-.57-.01-.03-.07-.09-.07-.09l-.04.04-.19-.33c-.19-.29-.37-.58-.63-.83-.16-.21-.04-.3 0-.49l-.2.02.1-.33c.01-.2-.17-.31-.32-.45-.14-.1-.34-.46-.27-.75l.16.09c-.1-.11.09-.25.15-.36.07-.12.13-.21.05-.23.03 0 .13-.04.13-.04h-.17c-.11-.22-.28-.43-.14-.69h-.02c.02-.04.1-.13.1-.13l.02-.02c.02-.02.06-.04.06-.04Zm0 0s.08-.04.13-.06c.02-.02.05-.02.09-.01v.05l.06-.02-.04.16c0 .14 0 .25-.04.27z"/></g><defs><clipPath id="a"><path fill="#fff" d="M6 1h108.65v82.44H6z"/></clipPath></defs></svg>