<svg xmlns="http://www.w3.org/2000/svg" width="165" height="84" fill="none" viewBox="0 0 165 84"><g clip-path="url(#a)"><path stroke="#A765CB" stroke-width=".3" d="M-.058 53H4.85m46.266 0h-4.206m0 0V31.447m0 21.553h-7.01m7.01-21.553 3.505 1.807.7-1.39-27.95-15.018-.79 1.39 2.103 1.133m22.432 12.078L24.477 19.369m0 0v8.323m0 25.308V29.36m0 23.64h-2.804m2.804 0h7.01m-7.01-23.64L4.849 36.805m19.628-7.443v-1.669M4.849 36.804l-2.96 1.178-.556-1.39 23.144-8.9M4.849 36.804V53m0 0h2.804m0 0h14.02m-14.02 0v-4.511M21.673 53v-4.511M31.487 53V39.094h8.412V53m-8.412 0h8.412M21.673 40.922v-1.828H7.653v1.828m14.02 0H7.653m14.02 0v1.891m-14.02-1.891v1.891m0 0h14.02m-14.02 0v1.892m14.02-1.892v1.892m0 0H7.653m14.02 0v1.892m-14.02-1.892v1.892m0 0h14.02m-14.02 0v1.892m14.02-1.892v1.892m0 0H7.653M32.797 53V40.432h5.815V53m-3.941-22.71-1.737 1.737a1.033 1.033 0 0 0 0 1.461l1.737 1.737a1.033 1.033 0 0 0 1.46 0l1.738-1.737a1.033 1.033 0 0 0 0-1.46l-1.737-1.738a1.033 1.033 0 0 0-1.461 0Z"/><g clip-path="url(#b)"><g clip-path="url(#c)"><path stroke="#A765CB" stroke-miterlimit="10" stroke-width=".192" d="M0 52.888h167.5"/></g></g><path fill="#FFCB00" stroke="#340051" stroke-linejoin="round" stroke-width=".272" d="M41.44 31.333c1.213-.968 2.571-1.63 3.902-2.082-.516-.598-1.105-1.549-1.105-1.549.173-.153.335-.262.508-.335 1.077-.48 2.037.67 2.499 1.377a22.3 22.3 0 0 1 3.422-.453c.562-.036 1.05.235 1.467.598.317.28.589.624.788.932a10.3 10.3 0 0 0 2.227-.597 14 14 0 0 0-.199-.661c-.063-.19.209-.399.136-.589s-.489-.362-.57-.552c-.48-1.132-1.087-2.173-1.63-3.015-.362-.553-.96-.852-1.476-1.268-3.713-3.042-5.877-1.521-6.918-1.232-.398.127-1.032.335-1.802.643a3.43 3.43 0 0 0-2.164 3.06c-.036.988.779 5.452.906 5.723z"/><path fill="#fff" stroke="#340051" stroke-linejoin="round" stroke-width=".272" d="M45.025 16.927c0 .1.036.2.072.28.118.3.363.49.625.471l-.127 1.893s-.018-.064-.054-.172l.055 2.499 2.499 4.681.37-4.799v-1.693c.499.054 1.06-.063 1.495-.607a1.64 1.64 0 0 0 .353-.824c.018-.117.027-.235.018-.362 0-.136-.009-.29-.018-.444a25 25 0 0 1-.027-1.376v-.353a8 8 0 0 1 .199-1.449 2.13 2.13 0 0 1-1.512-.145c-1.485-.715-1.983-.226-1.983-.226s.48.534 0 1.259c-.49.724-.371.787-.308 1.023h-.453c-.108-.335-.371-.562-.66-.534-.245.018-.444.226-.517.498a1 1 0 0 0-.036.37z"/><path stroke="#340051" stroke-linejoin="round" stroke-width=".272" d="m45.524 18.774.009.625"/><path fill="#fff" stroke="#340051" stroke-linejoin="round" stroke-width=".272" d="M48.991 18.503c.68 0 .824-.643.824-.643s-.29.118-.788.054c-.607-.072-1.177 0-1.177 0s.525.58 1.132.58z"/><path fill="#340051" stroke="#340051" stroke-linejoin="round" stroke-width=".272" d="M45.098 17.208c-.018.67.308 1.766.444 2.192.036.108.054.172.054.172l.127-1.893c-.262.018-.507-.172-.625-.47Z"/><path stroke="#340051" stroke-linejoin="round" stroke-width=".272" d="m46.24 16.592.008.009M45.967 17.597a.46.46 0 0 1-.245.082h-.018M48.466 20.096s-.751.046-1.521-.688"/><path fill="#FFCB00" d="M42.58 26.796s-.317 6.9-.117 7.887c.199.987-.39 3.93-.39 3.93l-.416-5.832z"/><path fill="#FFCB00" d="M41.44 31.333s-.933-4.554-.906-5.722c.245 5.595.48 6.582.245 9.335-.082.924-.399 2.68-.363 3.604l.11 3.368c1.348-.914 6.564-1.684 6.564-1.684l1.122-3.423.254-.76c-.063-1.784-.172-4.682-.263-6.8"/><path stroke="#340051" stroke-linejoin="round" stroke-width=".272" d="M41.44 31.333s-.933-4.554-.906-5.722c.245 5.595.48 6.582.245 9.335-.082.924-.399 2.68-.363 3.604l.11 3.368c1.348-.914 6.564-1.684 6.564-1.684l1.122-3.423.254-.76c-.063-1.784-.172-4.682-.263-6.8"/><path fill="#FFCB00" d="M48.221 29.757c.027.652.055 1.35.082 2.065z"/><path fill="#FFCB00" d="M48.303 31.822c.063 1.539.118 3.105.163 4.237l-.254.76.408 2.41h3.649l-.245-1.006c-.443-1.865-.244-3.757-.316-5.668L51.2 31.37s1.178-.335 2.318-1.078"/><path stroke="#340051" stroke-linejoin="round" stroke-width=".272" d="M48.221 29.757c.027.652.055 1.35.082 2.065"/><path stroke="#340051" stroke-linejoin="round" stroke-width=".272" d="M48.303 31.822c.063 1.539.118 3.105.163 4.237l-.254.76.408 2.41h3.649l-.245-1.006c-.443-1.865-.244-3.757-.316-5.668L51.2 31.37s1.178-.335 2.318-1.078"/><path fill="#D0B7FA" d="m41.04 41.51-.054.082 1.965 8.502s.09 1.087.172 2.536c.082 1.476.163 3.314.118 4.753-.027 1.014-.118 1.83-.29 2.155-.272.508-.299.833-.244 1.05.081.263.425.345.633.164l.29-.254h-.38l.58-.308.244-.081.652-.227.516-.307 1.802-1.069.525.724.2.272.08.064.625.452c.073.046.163.064.245.018l.163-.072a.244.244 0 0 0 .136-.272c-.245-1.068-.037-4.029.054-6.628 1.14-1.367 2.182-2.861 2.608-4.373.788-2.843.353-7.534.117-9.471h-3.169l-.407-2.409-.833 2.535s-5.505 1.658-6.864 2.572"/><mask id="d" width="13" height="25" x="40" y="36" maskUnits="userSpaceOnUse" style="mask-type:luminance"><path fill="#fff" d="m41.04 41.51-.054.082 1.965 8.502s.09 1.087.172 2.536c.081 1.476.163 3.314.117 4.753-.027 1.015-.117 1.83-.29 2.155-.271.508-.298.834-.244 1.05.082.264.426.345.634.164l.29-.254h-.38l.579-.307.244-.082.652-.226.516-.308 1.802-1.069.526.725.199.271.081.064.625.452c.072.046.163.064.244.018l.163-.072a.24.24 0 0 0 .136-.271c-.244-1.069-.036-4.03.054-6.629 1.141-1.367 2.183-2.86 2.608-4.373.788-2.843.353-7.534.118-9.471h-3.17l-.407-2.409-.833 2.536s-5.505 1.657-6.863 2.571"/></mask><g mask="url(#d)"><path fill="#D0B7FA" d="m53.092 39.229-4.636.688-.562-.996-.398.824s-3.64 1.014-3.658 1.557c0 0-1.766-2.074-1.177-3.386.588-1.313 5.405-2.527 5.405-2.527l4.835 1.186.19 2.662z"/><path fill="#B994F8" d="M41.221 40.043s2.662 9.037 2.671 10.938c.01 1.902.29 7.235.29 7.235h.706l-1.385 3.269-1.983.18.398-10.294-1.774-9.59 1.077-1.747z"/></g><path stroke="#340051" stroke-linejoin="round" stroke-width=".272" d="m41.04 41.51-.054.082 1.965 8.502s.09 1.087.172 2.536c.082 1.476.163 3.314.118 4.753-.027 1.014-.118 1.83-.29 2.155-.272.508-.299.833-.244 1.05.081.263.425.345.633.164l.29-.254h-.38l.58-.308.244-.081.652-.227.516-.307 1.802-1.069.525.724.2.272.08.064.625.452c.073.046.163.064.245.018l.163-.072a.244.244 0 0 0 .136-.272c-.245-1.068-.037-4.029.054-6.628 1.14-1.367 2.182-2.861 2.608-4.373.788-2.843.353-7.534.117-9.471h-3.169l-.407-2.409-.833 2.535s-5.505 1.658-6.864 2.572"/><path stroke="#340051" stroke-linejoin="round" stroke-width=".272" d="M47.905 40.55V42s.942 5.097 1.16 7.777c.072.842.044 2.02 0 3.287M46.275 56.804l1.268 1.666"/><path fill="#7754CC" stroke="#340051" stroke-linejoin="round" stroke-width=".272" d="m43.893 60.263.996.96c1.286.724 2.87.488 2.87.488l.227-.28a.7.7 0 0 1 .552-.263h.661l-1.087-.942-.262-.66-.081-.064-.2-.272c-.57-.18-1.449-.28-1.684.58l-.643-.236-.516.308-.652.227-.172.154z"/><path fill="#451E84" stroke="#340051" stroke-linejoin="round" stroke-width=".272" d="m44.89 61.223.298.28c.136.136.3.245.48.318 1.359.525 2.87.344 3.46.244a.31.31 0 0 0 .253-.308v-.199a.52.52 0 0 0-.181-.398h-.661c-.218 0-.417.1-.553.262l-.226.28s-1.575.236-2.87-.488z"/><path fill="#7754CC" stroke="#340051" stroke-linejoin="round" stroke-width=".272" d="m45.234 59.574.643.236c.244-.86 1.113-.752 1.684-.58l-.525-.724z"/><path fill="#FFCB00" d="m48.077 26.58-2.499-4.673v-.869l-.76.76.18 2.192h.915l-.308.842z"/><mask id="e" width="5" height="6" x="44" y="21" maskUnits="userSpaceOnUse" style="mask-type:luminance"><path fill="#fff" d="m48.078 26.58-2.5-4.672v-.87l-.76.761.181 2.191h.914l-.307.842z"/></mask><g mask="url(#e)"><path stroke="#B785F5" stroke-linejoin="round" stroke-width=".272" d="M47.851 17.869v28.096"/></g><path stroke="#340051" stroke-linejoin="round" stroke-width=".272" d="m48.077 26.58-2.499-4.673v-.869l-.76.76.18 2.192h.915l-.308.842z"/><path fill="#FFCB00" d="m48.466 20.94.68.805.85 1.73H49.2l.462.914-1.584 2.191.389-4.79z"/><path stroke="#340051" stroke-linejoin="round" stroke-width=".272" d="m48.466 20.94.68.805.85 1.73H49.2l.462.914-1.584 2.191.389-4.79z"/><path fill="#340051" d="m44.429 14.763.235.335c.163.634.208 1.295.398 1.458.082-.28.272-.48.517-.498.29-.027.561.2.66.543h.453c-.063-.244-.18-.307.308-1.032.48-.724 0-1.259 0-1.259s.498-.48 1.983.227c.544.253 1.06.28 1.512.145a8 8 0 0 0-.199 1.449c.236-.39 1.485-.526 1.014-2.6-.217-1.23-1.738-1.104-2.463-.896-.244.073-.498 0-.742-.045a1.72 1.72 0 0 0-1.521.48 1.42 1.42 0 0 1-.86.407c-1.06.1-1.295 1.295-1.295 1.295z"/><mask id="f" width="8" height="5" x="44" y="12" maskUnits="userSpaceOnUse" style="mask-type:luminance"><path fill="#fff" d="m44.43 14.763.235.335c.163.634.208 1.295.398 1.458.081-.28.272-.48.516-.498.29-.027.562.2.661.543h.453c-.063-.244-.181-.308.308-1.032.48-.724 0-1.259 0-1.259s.498-.48 1.983.227c.543.253 1.06.28 1.512.145a8 8 0 0 0-.2 1.448c.236-.389 1.486-.525 1.015-2.598-.218-1.232-1.739-1.105-2.463-.897-.245.073-.498 0-.743-.045a1.72 1.72 0 0 0-1.52.48c-.236.226-.535.38-.861.407-1.06.1-1.295 1.295-1.295 1.295z"/></mask><g mask="url(#f)"><path fill="#7754CC" d="M45.207 13.043s3.622-.724 4.184.172c0 0 2.145-.833 2.38 1.865l.1-3.54-4.5.217-2.173 1.295z"/></g><path stroke="#340051" stroke-linejoin="round" stroke-width=".272" d="m44.429 14.763.235.335c.163.634.208 1.295.398 1.458.082-.28.272-.48.517-.498.29-.027.561.2.66.543h.453c-.063-.244-.18-.307.308-1.032.48-.724 0-1.259 0-1.259s.498-.48 1.983.227c.544.253 1.06.28 1.512.145a8 8 0 0 0-.199 1.449c.236-.39 1.485-.526 1.014-2.6-.217-1.23-1.738-1.104-2.463-.896-.244.073-.498 0-.742-.045a1.72 1.72 0 0 0-1.521.48 1.42 1.42 0 0 1-.86.407c-1.06.1-1.295 1.295-1.295 1.295z"/><path stroke="#340051" stroke-linejoin="round" stroke-width=".272" d="M50.893 14.21s-.1.308-.39.471"/><path fill="#fff" stroke="#340051" stroke-linejoin="round" stroke-width=".272" d="M48.367 32.447c.941.77 2.562 1.693 4.817 1.53.407-.027.842-.09 1.295-.2a.99.99 0 0 0 .724-.67c.38-1.23.29-2.58-.054-3.884a11 11 0 0 1-2.228.598q-.476.07-1.005.1c-.86.452-1.928 1.648-3.54 2.526z"/><path fill="#fff" stroke="#340051" stroke-linejoin="round" stroke-width=".272" d="M41.44 31.333a5.8 5.8 0 0 0 1.195 1.703c.262.253.597.398.96.434 2.01.136 3.549-.353 4.771-1.023 1.621-.878 2.69-2.073 3.54-2.526q.53-.029 1.006-.1c-.2-.308-.471-.643-.788-.932-.416-.372-.906-.634-1.467-.598-.887.054-2.1.163-3.423.453a19 19 0 0 0-1.892.516c-1.34.453-2.698 1.105-3.902 2.082z"/><path stroke="#340051" stroke-miterlimit="10" stroke-width=".272" d="M51.31 24.977s.19 2.001.407 3.912M51.916 29.92q.217-.121.408-.163"/><path fill="#fff" stroke="#340051" stroke-linejoin="round" stroke-width=".272" d="M44.237 27.711s.589.96 1.105 1.549c.643-.218 1.285-.38 1.892-.516-.462-.707-1.421-1.848-2.499-1.377a2 2 0 0 0-.507.335z"/><path stroke="#340051" stroke-miterlimit="10" stroke-width=".272" d="m44.174 25.61.562 1.757"/><path fill="#D6D5F3" d="M40.617 67.004c7.534 4.01 34.99 6.025 49.03-.676 18.167-8.671 21.248-7.43 20.143-19.546-.676-7.384-19.675-7.715-38.818-1.482-19.142 6.234-36.9 18.22-30.355 21.697z"/><path fill="gray" stroke="#340051" stroke-linejoin="round" stroke-width=".195" d="M88.95 58.463c0 .429-.019.845-.032 1.242-.026.643-.065 1.235-.097 1.742v.019c-.013.156-.02.299-.04.442l-.123.065c.806-4.998-1.462-9.64-2.678-10.478-.702-.54-1.683-.702-2.47-.734.182-.189.358-.345.54-.482a6 6 0 0 1 .403-.26c.09-.045.182-.09.273-.123a2.42 2.42 0 0 1 1.67-.072q.517.166.936.508.07.058.13.117c.384.357.67.825.826 1.345.565 1.911.695 4.472.67 6.676z"/><path stroke="#340051" stroke-miterlimit="10" stroke-width=".195" d="M84.057 50.28c.136-.104.273-.189.403-.26a6 6 0 0 0-.403.26ZM86.215 49.766ZM88.951 58.463c0 .43-.02.845-.032 1.242q.021-.597.032-1.242Z"/><path fill="#B2B2B2" stroke="#340051" stroke-linejoin="round" stroke-width=".195" d="M103.381 56.773c.52 2.184 2.62 2.665 4.466 2.346a3.1 3.1 0 0 0 2.405-2.093c.526-1.605.754-4.01.656-6.2-.065-1.515-.279-2.913-.669-3.875-.234-.604-.54-1.027-.91-1.202-.41-.189-2.015-1.066-2.399-.624-1.046 1.202-3.958 4.31-2.346 6.526.598.819.806 2.58.942 3.581l.085.566a.676.676 0 0 1-.611.76q-.753.059-1.632.215z"/><path fill="#E5E5E5" stroke="#340051" stroke-linejoin="round" stroke-width=".195" d="M108.51 56.858c.829 0 1.501-2.052 1.501-4.583 0-2.53-.672-4.582-1.501-4.582s-1.502 2.051-1.502 4.582.673 4.583 1.502 4.583Z"/><path fill="#B2B2B2" stroke="#340051" stroke-linejoin="round" stroke-width=".195" d="M88.665 61.973c-.494 4.868-3.01 6.24-3.152 6.279-2.854.773-5.7.598-7.027.507-1.124-.078-2.743-2.223-2.918-2.6.435-.033.877-.065 1.326-.104a2.43 2.43 0 0 0 2.067-1.534c.578-1.456.851-3.218 1.072-4.427.936-5.148 2.19-7.968 3.484-9.333.787.032 1.768.194 2.47.734 1.222.832 3.49 5.48 2.678 10.478Z"/><path fill="#fff" stroke="#381A57" stroke-miterlimit="10" stroke-width=".195" d="M111.565 48.239c-.221 1.274-.475 2.112-.657 2.587-.065-1.515-.279-2.919-.669-3.874-.234-.599-.533-1.027-.904-1.197-.409-.188-3.263-.585-3.796 9.484l.085.566a.666.666 0 0 1-.611.754c-.501.038-1.053.11-1.632.214-4.426.78-10.874 3.237-14.183 4.92-.175.085-.377-.038-.377-.227v-.02a48 48 0 0 0 .13-2.983c.026-2.21-.097-4.764-.67-6.675a3 3 0 0 0-.955-1.463 2.8 2.8 0 0 0-.936-.507q-.096-.031-.182-.052a2.38 2.38 0 0 0-1.488.123 5 5 0 0 0-.273.124 6 6 0 0 0-.403.26 4.5 4.5 0 0 0-.54.481c-1.293 1.358-2.548 4.18-3.484 9.334-.22 1.209-.494 2.97-1.072 4.426a2.44 2.44 0 0 1-2.067 1.535q-.673.056-1.326.103C50.608 68.032 39.68 64.02 39.68 64.02c-.026-1.098-.41-1.683-.74-1.988-.306-.28-.534-.644-.599-1.053-.006-.059-.02-.117-.032-.182.806.299 1.664.565 2.56.812.898.24 1.84.448 2.809.624.39.072.773.137 1.17.202 10.627 1.709 24.251.39 27.748 0a.592.592 0 0 0 .462-.858l-.449-.865-1.306-2.535a.719.719 0 0 0-.67-.403l-4.9.123c-.26 0-.508.072-.729.196-.11.064-.214.136-.299.22a1.5 1.5 0 0 0-.247.286l-1.313 1.99a.8.8 0 0 1-.104.136 1 1 0 0 1-.123.123c-.17.157-.37.28-.585.345-.11.039-.228.059-.345.065l-.247.02c-.175.013-.377.026-.591.045l-.345.02c-.234.012-.494.032-.76.051-.137.007-.28.02-.43.02-.285.013-.59.032-.91.045H58.7l-1 .04c-5.318.168-13.729-.033-19.63-2.445-.241-2.028-.39-4.9.194-7.436 2.886 1.742 4.557 1.846 4.557 1.846s-.02-6.129.48-7.052c0 0-.318 0-.812.046-.169.013-.35.038-.552.065 3.711-2.243 10.166-4.29 12.038-4.856.305-.098.494-.15.52-.156.188-.215.377-.416.565-.624a35 35 0 0 1 1.684-1.71c5.603-5.33 10.627-6.746 10.627-6.746 8.49-2.483 24.128-2.86 29.913-2.054 4.518.624 8.379 4.881 9.854 6.72.377.475.949.722 1.554.761a2.78 2.78 0 0 1 1.586.624 3.3 3.3 0 0 1 1.183 2.314l.26 3.438a16 16 0 0 1-.176 3.985z"/><path fill="#E5E5E5" stroke="#340051" stroke-linejoin="round" stroke-width=".195" d="M84.83 66.464c1.55 0 2.808-3.047 2.808-6.805 0-3.759-1.257-6.806-2.808-6.806s-2.808 3.047-2.808 6.806 1.257 6.805 2.808 6.805ZM62.58 54.375s3.068-.026 6.169-.234a8.7 8.7 0 0 0 2.782-.657c2.106-.877 4.127-2.164 5.005-4.01.52-1.086.689-1.924.65-2.568a1.344 1.344 0 0 0-1.586-1.228c-2.32.422-6.065 1.631-7.794 2.502-2.554 1.294-5.232 6.195-5.232 6.195zM38.277 51.645c2.522 1.397 4.556 1.846 4.556 1.846s-.02-6.15.481-7.053c0 0-.559 0-1.371.11-1.034.625-1.853 1.268-2.301 1.892-.657.923-1.092 2.028-1.365 3.205ZM85.558 41.16s-16.055-1.138-29.042.305c0 0 5.278-6.09 11.98-8.528 0 0 6.935-1.527 20.481-.832 0 0-2.119 5.59-3.419 9.055ZM89.608 39.262c.013 1.638 1.183 2.204 1.183 2.204.286-.072 3.854-.917 7.319-1.749-.312-4.498-1.976-7.098-2.88-8.19q-.78.088-1.638.234a1.6 1.6 0 0 0-.39.124c-1.45.715-3.62 2.535-3.594 7.377ZM96.394 31.423c.728 1.06 2.619 4.121 3.08 7.97 1.925-.462 3.667-.872 4.616-1.1-.098-1.488-.839-4.51-4.797-6.356a5.9 5.9 0 0 0-2.88-.52H96.4z"/><path fill="#fff" stroke="#381A57" stroke-miterlimit="10" stroke-width=".195" d="M91.525 39.704s.007-.02.013-.026a2.155 2.155 0 0 1 1.97-1.365l1.833-.046c.396-.006.786.085 1.13.28.378.22.787.585.95 1.196a.64.64 0 0 1-.286.708c-.481.306-1.489.826-3.146 1.17a9 9 0 0 1-1.684.189l-.91.02-.026-1.19a2.5 2.5 0 0 1 .156-.95zM53.988 41.686c.338-.104.526-.156.526-.156a39 39 0 0 1 2.25-2.333 3 3 0 0 0-.319-.273.89.89 0 0 0-.832-.13c-.546.195-1.456.67-1.788 1.722-.097.319-.019.728.163 1.17Z"/><path fill="#B2B2B2" stroke="#340051" stroke-linejoin="round" stroke-width=".195" d="M38.076 59.074c.078.683.169 1.274.24 1.723 10.57 3.984 30.004 2.119 34.288 1.644a.592.592 0 0 0 .461-.858l-1.748-3.4a.74.74 0 0 0-.676-.402l-4.895.117a1.58 1.58 0 0 0-1.274.702l-1.32 1.989c-.26.39-.682.643-1.15.682-3.191.273-15.886 1.092-23.92-2.197z"/><path stroke="#381A57" stroke-miterlimit="10" stroke-width=".195" d="M99 41.238v14.924"/><path fill="#B2B2B2" stroke="#340051" stroke-linejoin="round" stroke-width=".195" d="m58.375 54.914-.982 3.348c-4.38.045-8.846-.319-12.584-.995l-.078-3.217c4.043.695 8.931 1.014 13.644.864Z"/><path fill="#fff" stroke="#381A57" stroke-miterlimit="10" stroke-width=".195" d="M84.252 62.454c.635 0 1.15-1.252 1.15-2.795 0-1.544-.515-2.795-1.15-2.795-.636 0-1.15 1.251-1.15 2.795 0 1.543.514 2.795 1.15 2.795ZM108.191 54.121c.334 0 .604-.826.604-1.846s-.27-1.846-.604-1.846-.605.827-.605 1.846.271 1.846.605 1.846Z"/><path fill="#fff" stroke="#340051" stroke-linejoin="round" stroke-width=".195" d="m69.096 20.232 1.222-.189-1.222-.188c-.832-.13-1.482-.8-1.612-1.652L67.159 16l-.325 2.203a1.945 1.945 0 0 1-1.612 1.652L64 20.043l1.222.189c.832.13 1.482.799 1.612 1.65l.325 2.204.325-2.203a1.945 1.945 0 0 1 1.612-1.651ZM89.926 32.119l1.222-.189-1.222-.188c-.832-.13-1.482-.8-1.612-1.651l-.325-2.204-.325 2.204a1.945 1.945 0 0 1-1.612 1.65l-1.222.19 1.222.188c.832.13 1.482.8 1.612 1.65l.325 2.204.325-2.203a1.945 1.945 0 0 1 1.612-1.651Z"/><path stroke="#340051" stroke-miterlimit="10" stroke-width=".279" d="M108.15 29.73v-.01l-.102.597.112-.587z"/><path fill="#fff" stroke="#340051" stroke-linejoin="round" stroke-width=".279" d="M108.569 44.231c1.592 1.304 4.321 2.85 8.13 2.58a14 14 0 0 0 2.18-.335 1.7 1.7 0 0 0 1.229-1.136c.652-2.087.493-4.35-.084-6.548-.996.392-2.282.783-3.762 1.006-.541.084-1.109.14-1.695.168-1.453.764-3.251 2.785-5.98 4.275z"/><path fill="#7F1D9A" stroke="#241F1F" stroke-miterlimit="10" stroke-width=".279" d="M95.149 39.873c.111.493.987.558 1.145 1.033.168.494.354.988.578 1.453 2.04-1.639 4.33-2.757 6.593-3.51-.875-1.007-1.872-2.618-1.872-2.618.289-.27.569-.447.848-.568 1.825-.81 3.437 1.136 4.219 2.319 2.235-.484 4.275-.67 5.783-.764.941-.065 1.779.391 2.478 1.015.54.475.987 1.053 1.331 1.565a17.6 17.6 0 0 0 3.763-1.006 20 20 0 0 0-.335-1.117c-.103-.317.354-.67.232-.987-.121-.327-.828-.606-.959-.932-.81-1.91-1.825-3.66-2.756-5.085a5.8 5.8 0 0 0-2.487-2.142 42 42 0 0 0-3.874-1.518c.26.717.577 1.714 1.015 2.45h-.494s-1.183-1.351-1.881-1.658l-.084.717v.018l-.046.382-.187.82-.112.587.103-.597s-1.136-1.424-1.919-1.704c-.13-.046-.251-.074-.316.038-.54.866-1.732 2.263-1.732 2.263s-2.441-3.12-2.142-3.884c-.68.214-1.742.568-3.046 1.08-2.142.838-3.558 2.878-3.65 5.17-.066 1.675-.02 3.538.27 5.373.074.465-.569 1.35-.466 1.807Z"/><path fill="#fff" stroke="#340051" stroke-linejoin="round" stroke-width=".279" d="M96.872 42.36c.512 1.08 1.174 2.057 2.021 2.868a2.65 2.65 0 0 0 1.621.726c3.39.233 5.988-.596 8.046-1.723 2.729-1.49 4.536-3.511 5.979-4.275a16 16 0 0 0 1.695-.167c-.344-.513-.791-1.09-1.332-1.565-.698-.615-1.536-1.07-2.477-1.015-1.509.093-3.548.28-5.783.764a30 30 0 0 0-3.195.866c-2.263.764-4.554 1.872-6.594 3.51z"/><path stroke="#340051" stroke-miterlimit="10" stroke-width=".279" d="M115.796 32.684s-.251 3.548-.875 5.541M115.247 39.686c-.224.047-.457.14-.689.27"/><path fill="#fff" stroke="#340051" stroke-linejoin="round" stroke-width=".279" d="M101.594 36.23s.996 1.612 1.872 2.608a29 29 0 0 1 3.194-.866c-.782-1.183-2.403-3.13-4.219-2.319a3 3 0 0 0-.847.568z"/><path stroke="#340051" stroke-miterlimit="10" stroke-width=".279" d="m102.45 35.655-.959-2.971"/><path fill="#7F1D9A" stroke="#241F1F" stroke-linejoin="round" stroke-width=".279" d="m116.542 53.18-.214-1.461s.549-1.658.419-2.692c-.084-.605-.066-1.546-.047-2.216-3.8.27-6.538-1.285-8.13-2.58-2.059 1.127-4.657 1.956-8.047 1.723a2.65 2.65 0 0 1-1.62-.727c-.019.168-.038.336-.066.531-.316 2.794-.651 7.423-.651 7.423z"/><path fill="#E5E5E5" stroke="#340051" stroke-linejoin="round" stroke-width=".279" d="M97.142 80.7h6.901s-.066-2.96.624-4.898c.167-.475.558-2.049 1.043-4.126l.894 8.913h5.848c-.037-.829-.018-1.406.196-3.13.084-.66.447-5.196.549-5.904.615-4.34 1.584-11.734 1.584-11.734l.298-6.622H98.874c-.196 1.546-.466 3.409-.69 4.06-.418 1.174 0 10.906 0 11.81 0 .912-1.033 11.65-1.033 11.65z"/><path stroke="#340051" stroke-miterlimit="10" stroke-width=".279" d="M105.71 71.677c1.453-6.268 3.791-17.192 3.791-17.192"/><path fill="#340051" stroke="#340051" stroke-linejoin="round" stroke-width=".279" d="M94.823 84.66v.726c1.509.54 3.148.54 4.656 0l3.847-1.378v-3.315h-4.694l-3.204 2.672a1.67 1.67 0 0 0-.596 1.286zM106.744 80.59v3.427l3.846 1.378c1.509.54 3.148.54 4.657 0v-.726c0-.494-.223-.969-.605-1.285l-3.334-2.785h-4.564z"/><path fill="#fff" stroke="#340051" stroke-linejoin="round" stroke-width=".279" d="M102.879 23.882v1.239l3.847 2.663c.149.103.298.224.428.345l.205.205c.261.288.466.605.633.96.038.083.075.167.103.26l.056.158v.01l.186-.82.046-.382v-.019l.094-.717.288-2.365.028-.214v-1.043a4.9 4.9 0 0 1-2.635.8h-.056c-.308 0-.606-.027-.904-.065a4.7 4.7 0 0 1-2.319-1.024z"/><path fill="#7F1D9A" stroke="#241F1F" stroke-linejoin="round" stroke-width=".279" d="M108.477 27.794c.689.308 1.881 1.658 1.881 1.658h.493c-.428-.736-.754-1.732-1.015-2.45-.149-.4-.27-.707-.391-.837-.168-.187-.447-.485-.68-.736zM104.182 30.317s1.192-1.397 1.732-2.263c.075-.112.196-.084.317-.037.782.28 1.918 1.704 1.918 1.704l-.056-.158c-.037-.084-.065-.177-.102-.261a3.4 3.4 0 0 0-.633-.96c-.065-.074-.14-.139-.205-.204a3 3 0 0 0-.429-.345l-3.846-2.663v-.392l-.391.243s-.112.894-.438 1.425c0 .009-.018.027-.018.037-.298.763 2.142 3.883 2.142 3.883z"/><path fill="#fff" stroke="#340051" stroke-linejoin="round" stroke-width=".279" d="M99.954 20.324c.196.801.792 1.342 1.323 1.211a.75.75 0 0 0 .372-.233c-.018-.177-.037-.354-.037-.54l-.121-1.155-.065-.614s-.075-.084-.112-.112c-.056-.056-.121-.093-.186-.13a1 1 0 0 0-.131-.066c-.037-.009-.074-.028-.112-.037h-.08299999999999999c-.084 0-.168 0-.252.019-.531.13-.81.884-.614 1.685zM110.46 21.246c.102.14.251.242.41.28.531.13 1.127-.41 1.322-1.211.196-.8-.074-1.555-.614-1.686-.038 0-.075-.018-.121-.018h-.084c-.261.018-.513.177-.727.428l-.074.699-.019.214-.074.791c0 .177 0 .345-.028.513z"/><path stroke="#340051" stroke-miterlimit="10" stroke-width=".279" d="m100.709 17.987.112.624h.046a14 14 0 0 1-.139-.633z"/><path fill="#fff" stroke="#340051" stroke-linejoin="round" stroke-width=".279" d="m101.509 19.598.121 1.155c0 .177.01.363.038.54a4.54 4.54 0 0 0 1.639 2.99 4 4 0 0 0 2.021.884q.388.056.791.056h.047c.847 0 1.63-.26 2.291-.699a4.48 4.48 0 0 0 2.039-3.79l.075-.792c-.242-.214-.298-.614-.289-1.07 0-.28.028-.587.056-.885.075-.82.121-1.612-.372-1.826-1.043-.456-.978-1.574-.978-1.574s-1.043 1.1-3.102 1.1c-2.058 0-3.268-1.23-3.129.381.093 1.071-.158 1.518-.512 1.91-.074.083-.149.158-.223.241l-.364 1.006-.13.354z"/><path stroke="#340051" stroke-miterlimit="10" stroke-width=".279" d="M103.978 20.502a2.263 2.263 0 0 0 4.089.168"/><path fill="#340051" stroke="#340051" stroke-linejoin="round" stroke-width=".279" d="M100.718 17.987c.047.233.093.447.14.633h.037a.3.3 0 0 1 .112.037 1.3 1.3 0 0 1 .428.298l.066.625.13-.354.363-1.006c.084-.084.159-.168.224-.242.354-.392.605-.839.512-1.91-.14-1.62 1.071-.381 3.129-.381.382 0 .736-.038 1.053-.103s-1.593.94-1.332.94c3.203 0 3.38-1.936 3.38-1.936s-.065 1.108.978 1.574c.494.214.438 1.005.373 1.825-.028.298-.047.605-.056.885 0 .465.047.857.289 1.07l.018-.204.075-.708c.214-.252.465-.41.726-.428h.084c.717-1.872 1.835-5.635-.643-6.129 0 0 1.435-2.132-3.958-2.123-.279 0 2.757 1.416 2.459 1.257-.242-.13-.494-.251-.736-.363-.503-.233-.987-.4-1.331-.428-1.081-.084-6.054.41-6.482 2.16-.475 1.928-.308 3.744-.056 5.002z"/><path fill="#EA3455" d="m113.741 34.554-1.033-1.032a.15.15 0 0 0-.209 0l-1.033 1.032a.15.15 0 0 0 0 .21l1.033 1.032a.15.15 0 0 0 .209 0l1.033-1.032a.15.15 0 0 0 0-.21"/></g><defs><clipPath id="a"><path fill="#fff" d="M0 0h165v84H0z"/></clipPath><clipPath id="b"><path fill="#fff" d="M0-25h184v128H0z"/></clipPath><clipPath id="c"><path fill="#fff" d="M0-28.2h163.2v135.04H0z"/></clipPath></defs></svg>